<svg viewBox="0 0 512 512" xmlns="http://www.w3.org/2000/svg">
  <path d="M512 200.682c0-29.775-24.226-54-54.003-54h-3.06l-8.414-5.409c-56.944-36.606-122.825-55.956-190.521-55.956s-133.577 19.35-190.521 55.956l-8.414 5.409h-3.062c-29.777 0-54.003 24.225-54.003 54 0 28.838 22.722 52.468 51.203 53.929 10.739 96.656 92.915 172.072 192.388 172.072h24.82c99.473 0 181.649-75.416 192.388-172.072C489.279 253.15 512 229.52 512 200.682zm-492 0c0-17.393 13.132-31.769 30.001-33.757v66.168c0 .451.014.899.017 1.349C33.141 232.463 20 218.082 20 200.682zm248.411 206.001h-24.82c-95.718 0-173.59-77.872-173.59-173.59v-70.95l6.293-4.046c109.167-70.182 250.245-70.182 359.414 0l6.293 4.045v70.951c0 95.718-77.872 173.59-173.59 173.59zm193.573-172.241c.003-.45.017-.898.017-1.349v-66.167C478.869 168.914 492 183.289 492 200.682c0 17.4-13.14 31.78-30.016 33.76z"/>
  <path d="M383.408 208.634c-38.08-24.479-82.137-37.419-127.407-37.419s-89.327 12.939-127.407 37.419c-4.646 2.987-5.991 9.174-3.005 13.819 2.987 4.646 9.175 5.992 13.819 3.005 70.828-45.533 162.357-45.533 233.186 0a9.993 9.993 0 0013.819-3.005c2.986-4.645 1.642-10.831-3.005-13.819zM351.188 267.271c-57.822-37.172-132.551-37.172-190.373 0-4.646 2.987-5.991 9.174-3.005 13.819 2.986 4.646 9.175 5.991 13.819 3.005 51.254-32.951 117.49-32.951 168.744 0a9.993 9.993 0 0013.819-3.005c2.987-4.645 1.642-10.832-3.004-13.819z"/>
</svg>
