<svg viewBox="0 0 495 495" xmlns="http://www.w3.org/2000/svg">
  <path d="M489.57 28.86c-.925-11.731-10.199-21.07-21.922-22.079a1778.227 1778.227 0 00-310.32 0c-11.777 1.047-21.078 10.45-22 22.239-2.719 34-4.613 67.28-5.68 99.84-33.52.96-67.039 2.96-100.32 5.921-11.777 1.047-21.078 10.45-22 22.239a1786.594 1786.594 0 00-.16 310.48c1.14 11.531 10.305 20.625 21.84 21.68 51.601 4.48 103.523 6.8 155.441 6.8 51.922 0 103.84-2.32 155.36-6.8 11.593-1.028 20.808-10.172 21.921-21.758 3.04-32.64 5.04-66.082 6-100.32 33.438-1.043 66.88-3.043 100.079-5.922 11.593-1.028 20.808-10.172 21.921-21.758a1788.695 1788.695 0 00-.16-310.563zM351.73 367.577c-.96 33.524-2.96 66.402-5.921 98.402a8.185 8.185 0 01-7.36 7.282 1768.527 1768.527 0 01-308 0 8.185 8.185 0 01-7.36-7.282 1769.856 1769.856 0 01.161-307.68 8.37 8.37 0 017.52-7.6c32.64-2.88 65.52-4.802 98.398-5.84 5.281-.16 42.16-.88 55.281-.88 51.36 0 102.719 2.239 153.762 6.72a8.282 8.282 0 017.437 7.519c5.52 66.402 6.243 204.082 6.082 209.36zM473.81 337.98a8.185 8.185 0 01-7.36 7.282 1732.787 1732.787 0 01-98.398 5.84 1914.16 1914.16 0 00-6.48-194.243c-.926-11.73-10.2-21.07-21.923-22.078a1783.978 1783.978 0 00-194.078-6.402c1.121-31.918 3.012-64.613 5.68-98.078a8.37 8.37 0 017.52-7.602c50.96-4.48 102.32-6.719 153.68-6.719s102.718 2.239 153.76 6.72a8.282 8.282 0 017.438 7.519 1771.956 1771.956 0 01.16 307.761zm0 0"/>
  <path d="M130.395 198.035a8.004 8.004 0 00-11.313 0l-22.633 22.633-22.633-22.633a7.992 7.992 0 00-7.777-2.18c-2.797.73-4.984 2.915-5.715 5.711s.102 5.774 2.18 7.782l22.633 22.632-22.633 22.633a8.001 8.001 0 1011.312 11.313l22.633-22.633 22.633 22.633c2.008 2.078 4.984 2.91 7.781 2.18s4.98-2.918 5.711-5.715a7.992 7.992 0 00-2.18-7.778l-22.632-22.633 22.633-22.632a8.004 8.004 0 000-11.313zm0 0M306.395 198.035a8.004 8.004 0 00-11.313 0l-22.633 22.633-22.633-22.633a7.992 7.992 0 00-7.777-2.18c-2.797.73-4.984 2.915-5.715 5.711s.102 5.774 2.18 7.782l22.633 22.632-22.633 22.633a8.001 8.001 0 1011.312 11.313l22.633-22.633 22.633 22.633a8 8 0 0011.313-11.313l-22.633-22.633 22.633-22.632a8.004 8.004 0 000-11.313zm0 0M130.395 374.035a8.004 8.004 0 00-11.313 0l-22.633 22.633-22.633-22.633a7.992 7.992 0 00-7.777-2.18c-2.797.73-4.984 2.915-5.715 5.711s.102 5.774 2.18 7.782l22.633 22.632-22.633 22.633a8.001 8.001 0 1011.312 11.313l22.633-22.633 22.633 22.633c2.008 2.078 4.984 2.91 7.781 2.18s4.98-2.918 5.711-5.715a7.992 7.992 0 00-2.18-7.778l-22.632-22.633 22.633-22.632a8.004 8.004 0 000-11.313zm0 0M306.395 374.035a8.004 8.004 0 00-11.313 0l-22.633 22.633-22.633-22.633a7.992 7.992 0 00-7.777-2.18c-2.797.73-4.984 2.915-5.715 5.711s.102 5.774 2.18 7.782l22.633 22.632-22.633 22.633a8.001 8.001 0 1011.312 11.313l22.633-22.633 22.633 22.633a8 8 0 0011.313-11.313l-22.633-22.633 22.633-22.632a8.004 8.004 0 000-11.313zm0 0"/>
</svg>
