<svg xmlns="http://www.w3.org/2000/svg" viewBox="0 0 997.76 508.468">
  <defs>
    <clipPath clipPathUnits="userSpaceOnUse" id="clip-path">
      <path d="M0 960h960V0H0z"/>
    </clipPath>
  </defs>
  <path class="warm" d="M125.8776 489.3577l-15.508-33.912H81.5469v52.2387h15.6654l-.392-39.0813h2.82l19.6586 39.0813h13.236l19.6587-39.0813h2.664l-.392 39.0813h15.664v-52.2387h-28.6653zM200.6893 487.399l10.1027-19.8146h3.1333l10.104 19.8147zm-.6266-31.9533l-27.648 52.2387h18.1706l4.464-8.8493h34.54l4.4654 8.8493h18.092l-27.3347-52.2387z"/>
  <g clip-path="url(#clip-path)" transform="matrix(1.33333 0 0 -1.33333 -116.3373 894.2341)">
    <path class="warm" d="M313.6725 310.3533c-.823-.587-.823-.587-6.815-.705h-16.799v9.634h16.799c5.405-.059 5.581-.059 6.404-.411 1.233-.528 1.703-1.645 1.703-4.287 0-2.468-.352-3.644-1.292-4.231m13.217 5.992c0 6.814-.882 9.399-3.877 11.22-2.526 1.526-2.526 1.526-16.037 1.526h-28.842v-39.179h11.925v9.927h16.858c4.935 0 5.816-.118 6.638-1.057.94-1 1.175-2.408 1.175-6.814v-2.056h11.749v3.641c.234 9.047-.823 10.809-6.873 11.514 2.349.352 3.466.764 4.581 1.644 2.115 1.587 2.703 3.819 2.703 9.634M331.008 289.912h12.512v39.18h-12.512zM391.6903 299.8978h-1.234l-20.501 29.194h-20.911v-39.18h12.159l-.294 29.253h1.293l20.618-29.253h20.736v39.18h-12.16zM420.7763 305.537h30.017v8.635h-30.017v5.698h31.603v9.222h-43.352v-39.18h43.587v9.398h-31.838zM508.2509 305.0086c-.059-5.816-.234-5.875-13.333-5.875-12.57 0-12.747.118-12.747 10.163 0 5.933.47 8.224 1.88 9.399 1.174.94 3.349 1.174 10.808 1.174 7.519 0 10.984-.352 11.866-1.116.705-.587.821-1.115.939-3.7h11.924v1.938c0 6.286-1.174 9.164-4.523 10.867-2.701 1.41-6.343 1.822-16.8 1.822-20.5 0-24.787-1-26.903-6.285-.88-2.175-1.115-5.406-1.115-14.158 0-4.993.117-8.224.292-9.986.471-3.995 1.646-6.168 4.231-7.637 3.172-1.82 8.106-2.29 23.436-2.29 8.694 0 12.983.352 16.154 1.351 4.348 1.41 5.992 4.288 5.992 10.632 0 .588-.059 1.468-.118 3.701zM541.9758 305.1263l7.578 14.861h2.349l7.578-14.861zm-.47 23.965l-20.735-39.179h13.627l3.349 6.637h25.904l3.349-6.637h13.569l-20.501 39.179zM624.9858 299.8978h-1.234l-20.501 29.194h-20.911v-39.18h12.158l-.293 29.253h1.293l20.618-29.253h20.736v39.18h-12.16zM682.5599 329.0917l-14.097-29.312h-2.291l-14.275 29.312h-13.099l19.384-39.18h18.269l19.151 39.18zM708.6496 305.1263l7.578 14.861h2.349l7.578-14.861zm-.471 23.965l-20.734-39.179h13.627l3.347 6.637h25.906l3.349-6.637h13.569l-20.501 39.179zM791.8348 312.0579c-2.526 1.585-5.052 1.88-17.974 2.29-8.283.236-11.514.411-12.571.705-1.234.293-1.762 1.057-1.762 2.526 0 2.878.821 3.114 10.925 3.114 8.459 0 9.928-.118 10.926-.705.882-.529 1.057-1.057 1.175-3.231h11.514c.059.764.059 1.586.059 1.82 0 4.642-.941 7.109-3.29 8.694-2.761 1.88-6.873 2.41-18.269 2.41-9.399 0-14.802-.236-17.094-.705-5.404-1.175-7.519-4.524-7.519-11.984 0-8.635 2.703-11.103 12.394-11.396l3.172-.118 6.345-.293 9.398-.353c3.819-.059 4.7-.646 4.7-2.995 0-3.467 0-3.467-12.806-3.467-8.399 0-9.692.118-10.809.823-.939.587-1.175 1.351-1.175 3.7h-11.571v-1.879c0-5.404.88-7.694 3.583-9.399 2.761-1.762 7.519-2.29 19.679-2.29 11.689 0 16.623.293 18.973 1.174 4.053 1.528 5.698 4.875 5.698 11.689 0 5.464-.998 8.107-3.701 9.87M302.3077 408.0405c.758.069 1.511.144 2.272.21 21.355 18.514 99.627 81.408 193.056 96.094l-33.812 28.667s-6.615 8.085-19.478 1.837c0 0-60.031-11.798-142.038-126.808"/>
    <path class="cool" d="M468.7851 482.5134c.745.232 1.49.463 2.235.697 4.895 1.572 9.864 2.907 14.791 4.372 2.274.688 4.567 1.314 6.863 1.926v-8.541c-7.931-1.647-15.907-3.456-23.889-5.447zm28.85 8.309c1.018.27 2.036.539 3.052.817 4.952 1.374 9.957 2.546 14.954 3.741 4.764 1.157 9.531 2.299 14.336 3.274v-11.006c-10.604-1.61-21.421-3.488-32.342-5.669zm37.303 8.878c3.598.768 7.193 1.549 10.812 2.208l15.158 2.694c5.05.903 10.151 1.483 15.221 2.24l1.441.203v-13.655c-13.564-1.235-27.872-2.868-42.632-5.008zm47.594 8.044l1.212.171 7.647.771c5.101.469 10.189 1.091 15.295 1.436l15.328.79 3.83.198 3.832.001 3.022-.01v-14.44c-14.709-.413-31.687-1.257-50.166-2.832zm-258.906-98.167c2.365.128 4.732.253 7.112.355 11.96.627 24.092.686 36.36.669 6.118-.09 12.29-.122 18.466-.286 6.175-.18 12.385-.4 18.591-.704 6.221-.263 12.442-.6 18.68-.949 6.247-.314 12.47-.755 18.723-1.199 12.441-.956 24.93-1.916 37.419-2.877 24.891-2.17 49.627-4.241 73.863-6.021 6.066-.459 12.09-.791 18.089-1.156 5.996-.408 11.947-.69 17.872-1.025 3.708-.16 7.372-.279 11.049-.411l7.673 1.056 81.037 99.23s-19.738 1.226-50.901.528v14.299c4.999-.024 10.001.071 14.975-.4l7.339-.49-2.284-6.219 18.591 11.626-7.837.325-15.581.648c-5.19.354-10.377.113-15.561.011l-7.775-.174-3.885-.101-3.873-.298-15.482-1.194c-5.15-.48-10.269-1.237-15.402-1.842l-7.691-.974-7.643-1.276c-5.087-.892-10.204-1.607-15.261-2.644l-15.169-3.096c-5.049-1.054-10.047-2.344-15.071-3.504-5.03-1.136-10.01-2.475-14.987-3.819-4.981-1.326-9.967-2.628-14.898-4.132-4.934-1.487-9.909-2.829-14.803-4.445-4.899-1.593-9.839-3.056-14.702-4.755-4.871-1.674-9.765-3.275-14.595-5.063-4.854-1.719-9.677-3.52-14.483-5.366-4.803-1.85-9.587-3.752-14.326-5.76 4.788 1.887 9.617 3.665 14.463 5.392 4.848 1.722 9.711 3.398 14.602 4.991 2.489.85 4.994 1.651 7.503 2.437v-6.705c-50.274-13.015-100.418-33.281-140.197-64.682"/>
    <path class="cool" d="M834.759 449.1975c-.565-1.404-1.508-3.438-2.905-5.969-1.387-2.485-3.272-5.449-5.783-8.697-.039-.051-.071-.098-.111-.149-.638-.827-1.237-1.72-1.966-2.572-.72-.852-1.466-1.732-2.235-2.642-1.454-1.868-3.302-3.617-5.076-5.565-3.808-3.696-8.121-7.619-13.239-11.34-1.178-.84-2.397-1.679-3.639-2.514-2.445-1.643-5.036-3.259-7.749-4.834-1.939-1.125-3.922-2.234-6.007-3.298-.235-.121-.486-.235-.722-.356-12.786-6.531-28.116-11.963-45.364-15.986-17.555-4.165-37.069-6.911-57.908-8.558-5.22-.362-10.504-.774-15.882-1.051-2.703-.164-5.337-.264-8.072-.393-1.393-.055-2.79-.11-4.191-.165l-4.081-.102c-5.509-.089-11.056-.316-16.687-.317-2.811-.022-5.635-.044-8.472-.067-2.842.034-5.697.068-8.564.103-11.459.153-23.142.536-34.972 1.045-5.925.335-11.876.617-17.872 1.024-5.999.366-12.023.697-18.089 1.157-15.922 1.169-32.072 2.471-48.327 3.838-8.489.713-16.997 1.438-25.535 2.183-12.49.96-24.979 1.921-37.419 2.877-6.254.444-12.477.885-18.724 1.198-6.237.35-12.459.687-18.679.95-6.206.304-12.417.524-18.592.703-6.175.164-12.347.196-18.466.287-12.268.017-24.4-.042-36.36-.669-7.899-.338-15.706-.835-23.417-1.465-15.625-1.276-30.823-3.143-45.373-5.653-21.752-3.773-41.933-8.882-60.402-14.924a442.5562 442.5562 0 01-18.297-6.512c-10.87-4.141-20.957-8.505-30.048-13.008-6.995-3.48-13.435-6.986-19.158-10.633-5.772-3.54-10.824-7.22-15.253-10.65-2.157-1.816-4.23-3.461-6.091-5.124-1.82-1.721-3.549-3.282-5.071-4.831-1.489-1.573-2.867-3.029-4.129-4.364-1.21-1.394-2.268-2.697-3.224-3.834-.475-.57-.922-1.107-1.341-1.609-.395-.516-.728-1.024-1.056-1.48-.647-.918-1.191-1.692-1.629-2.315-.876-1.245-1.329-1.888-1.329-1.888l1.729 1.532c.569.505 1.277 1.132 2.118 1.877.421.372.875.773 1.363 1.203.505.399 1.044.825 1.617 1.278 4.404 3.732 11.524 8.542 20.937 13.612 9.52 4.951 21.45 10.093 35.676 14.569 7.108 2.24 14.716 4.483 22.863 6.515 4.087.993 8.278 2.012 12.569 3.055 4.336.932 8.772 1.886 13.302 2.86 17.747 3.573 37.449 6.459 58.278 8.226 5.707.493 11.515.886 17.401 1.204 15.51.837 31.603 1.101 48.129.923.115-.002.229-.001.344-.003 11.456-.145 23.139-.561 34.966-1.058 11.843-.64 23.83-1.356 35.959-2.209 24.236-1.787 48.974-3.893 73.868-6.067 24.898-1.977 49.961-4.016 74.829-5.033 6.206-.309 12.418-.499 18.591-.71 6.177-.158 12.347-.191 18.466-.276 12.267 0 24.397.035 36.354.665 2.987.141 5.962.281 8.924.421 2.963.198 5.914.395 8.85.592 5.869.318 11.686.943 17.428 1.506 1.448.147 2.892.293 4.332.439 1.393.161 2.782.321 4.167.48 2.817.347 5.709.678 8.486 1.058 5.591.718 11.12 1.536 16.556 2.459 10.875 1.878 21.44 3.975 31.567 6.541 10.117 2.611 19.831 5.501 28.987 8.854 9.145 3.375 17.781 7.051 25.717 11.161 7.925 4.124 15.219 8.519 21.669 13.239 6.448 4.716 12.146 9.592 16.954 14.54 4.809 4.956 8.736 9.934 11.964 14.595 3.122 4.751 5.665 9.103 7.43 13.104 1.902 3.912 3.203 7.387 4.092 10.246.809 2.556 1.204 4.604 1.453 6.095.029.174.066.374.091.532.229 1.515.294 2.297.294 2.297s-.246-.749-.814-2.153"/>
    <path class="warm" d="M706.5297 603.3223l86.336 66.996c-1.005.212-2.074.357-3.284.357h-201.691c-19.984 0-37.007-2.533-51.069-7.586-14.063-5.059-25.414-12.212-34.047-21.464-8.639-9.253-14.931-20.482-18.874-33.677-3.95-13.202-5.922-27.941-5.922-44.224v-32.579l31.736-26.907c.57.152 1.153.312 1.719.462l1.638.435c4.664 1.259 9.978 2.694 15.276 3.89 1.717.397 3.468.818 5.218 1.239 3.245.781 6.598 1.587 9.979 2.29l10.671 2.18c0 .047-.001.092-.001.14v45.149c0 16.526 3.018 27.877 9.066 34.047 6.044 6.164 16.469 9.252 31.272 9.252h73.394z"/>
    <path class="cool" d="M372.8802 580.3776c0-7.899-1.73-13.45-5.182-16.653-3.457-3.209-9.379-4.811-17.764-4.811h-128.046v45.518c0 4.193 2.093 6.292 6.291 6.292h121.755c8.385 0 14.307-1.665 17.764-4.996 3.452-3.331 5.182-9.067 5.182-17.208zm4.81 90.298h-221.305c-7.159 0-10.733-3.701-10.733-11.102v-256.815c-35.393-28.127-44.652-63.759-44.652-63.759 48.355 46.496 108.319 59.267 146.922 62.262h39.307l5.879 8.869c15.785 21.107 31.172 39.145 45.696 54.413h-116.916v50.702h132.487c7.153 0 12.149-1.608 14.987-4.812 2.346-2.654 3.709-6.938 4.115-12.799 25.517 21.923 46.046 34.267 57.942 40.193-1.455.926-2.947 1.801-4.508 2.582 5.67 3.944 10.731 9.251 15.17 15.913 4.442 6.662 6.665 15.416 6.665 26.275v23.686c0 20.475-5.554 36.324-16.657 47.554-11.1 11.224-29.233 16.838-54.399 16.838"/>
    <path class="warm" d="M818.8071 480.7996c-3.725-2.813-7.484-4.816-11.037-6.246-21.563-10.144-62.666-19.837-140.375-16.431l-46.435-56.861c21.823-1.704 41.458-1.558 59.122 0 17.663 1.557 33.346 4.53 47.261 8.484 84.377 23.978 103.657 84.084 103.657 84.084s-1.908-5.945-12.193-13.03"/>
  </g>
</svg>
