<?xml version="1.0" encoding="UTF-8" standalone="no"?>
<!-- Created with Inkscape (http://www.inkscape.org/) -->

<svg
   version="1.1"
   id="svg25"
   xml:space="preserve"
   width="997.75995"
   height="550"
   viewBox="0 0 997.75995 550.00001"
   xmlns="http://www.w3.org/2000/svg"
   xmlns:svg="http://www.w3.org/2000/svg"><defs
     id="defs29"><clipPath
       clipPathUnits="userSpaceOnUse"
       id="clipPath47"><path
         d="M 0,960 H 960 V 0 H 0 Z"
         id="path45" /></clipPath></defs><g
     id="g31"
     transform="matrix(1.3333333,0,0,-1.3333333,-116.33733,894.23411)"><g
       id="g41"
       transform="translate(0,-40.5)"><g
         id="g43"
         clip-path="url(#clipPath47)"><g
           id="g87"
           transform="translate(302.3077,408.0405)"><path
             d="m 0,0 c 0.758,0.069 1.511,0.144 2.272,0.21 21.355,18.514 99.627,81.408 193.056,96.094 l -33.812,28.667 c 0,0 -6.615,8.085 -19.478,1.837 C 142.038,126.808 82.007,115.01 0,0"
             style="fill:#f7941e;fill-opacity:1;fill-rule:nonzero;stroke:none"
             id="path89" /></g><g
           id="g91"
           transform="translate(468.7851,482.5134)"><path
             d="m 0,0 c 0.745,0.232 1.49,0.463 2.235,0.697 4.895,1.572 9.864,2.907 14.791,4.372 2.274,0.688 4.567,1.314 6.863,1.926 V -1.546 C 15.958,-3.193 7.982,-5.002 0,-6.993 Z m 28.85,8.309 c 1.018,0.27 2.036,0.539 3.052,0.817 4.952,1.374 9.957,2.546 14.954,3.741 4.764,1.157 9.531,2.299 14.336,3.274 V 5.135 C 50.588,3.525 39.771,1.647 28.85,-0.534 Z m 37.303,8.878 c 3.598,0.768 7.193,1.549 10.812,2.208 l 15.158,2.694 c 5.05,0.903 10.151,1.483 15.221,2.24 l 1.441,0.203 V 10.877 C 95.221,9.642 80.913,8.009 66.153,5.869 Z m 47.594,8.044 1.212,0.171 7.647,0.771 c 5.101,0.469 10.189,1.091 15.295,1.436 l 15.328,0.79 3.83,0.198 3.832,10e-4 3.022,-0.01 v -14.44 c -14.709,-0.413 -31.687,-1.257 -50.166,-2.832 z m -258.906,-98.167 c 2.365,0.128 4.732,0.253 7.112,0.355 11.96,0.627 24.092,0.686 36.36,0.669 6.118,-0.09 12.29,-0.122 18.466,-0.286 6.175,-0.18 12.385,-0.4 18.591,-0.704 6.221,-0.263 12.442,-0.6 18.68,-0.949 6.247,-0.314 12.47,-0.755 18.723,-1.199 12.441,-0.956 24.93,-1.916 37.419,-2.877 24.891,-2.17 49.627,-4.241 73.863,-6.021 6.066,-0.459 12.09,-0.791 18.089,-1.156 5.996,-0.408 11.947,-0.69 17.872,-1.025 3.708,-0.16 7.372,-0.279 11.049,-0.411 l 7.673,1.056 81.037,99.23 c 0,0 -19.738,1.226 -50.901,0.528 v 14.299 c 4.999,-0.024 10.001,0.071 14.975,-0.4 l 7.339,-0.49 -2.284,-6.219 18.591,11.626 -7.837,0.325 -15.581,0.648 c -5.19,0.354 -10.377,0.113 -15.561,0.011 l -7.775,-0.174 -3.885,-0.101 -3.873,-0.298 -15.482,-1.194 c -5.15,-0.48 -10.269,-1.237 -15.402,-1.842 l -7.691,-0.974 -7.643,-1.276 C 101.678,27.323 96.561,26.608 91.504,25.571 L 76.335,22.475 C 71.286,21.421 66.288,20.131 61.264,18.971 56.234,17.835 51.254,16.496 46.277,15.152 41.296,13.826 36.31,12.524 31.379,11.02 26.445,9.533 21.47,8.191 16.576,6.575 11.677,4.982 6.737,3.519 1.874,1.82 -2.997,0.146 -7.891,-1.455 -12.721,-3.243 c -4.854,-1.719 -9.677,-3.52 -14.483,-5.366 -4.803,-1.85 -9.587,-3.752 -14.326,-5.76 4.788,1.887 9.617,3.665 14.463,5.392 4.848,1.722 9.711,3.398 14.602,4.991 2.489,0.85 4.994,1.651 7.503,2.437 V -8.254 C -55.236,-21.269 -105.38,-41.535 -145.159,-72.936"
             style="fill:#1c75bc;fill-opacity:1;fill-rule:nonzero;stroke:none"
             id="path93" /></g><g
           id="g95"
           transform="translate(834.759,449.1975)"><path
             d="m 0,0 c -0.565,-1.404 -1.508,-3.438 -2.905,-5.969 -1.387,-2.485 -3.272,-5.449 -5.783,-8.697 -0.039,-0.051 -0.071,-0.098 -0.111,-0.149 -0.638,-0.827 -1.237,-1.72 -1.966,-2.572 -0.72,-0.852 -1.466,-1.732 -2.235,-2.642 -1.454,-1.868 -3.302,-3.617 -5.076,-5.565 -3.808,-3.696 -8.121,-7.619 -13.239,-11.34 -1.178,-0.84 -2.397,-1.679 -3.639,-2.514 -2.445,-1.643 -5.036,-3.259 -7.749,-4.834 -1.939,-1.125 -3.922,-2.234 -6.007,-3.298 -0.235,-0.121 -0.486,-0.235 -0.722,-0.356 -12.786,-6.531 -28.116,-11.963 -45.364,-15.986 -17.555,-4.165 -37.069,-6.911 -57.908,-8.558 -5.22,-0.362 -10.504,-0.774 -15.882,-1.051 -2.703,-0.164 -5.337,-0.264 -8.072,-0.393 -1.393,-0.055 -2.79,-0.11 -4.191,-0.165 -1.357,-0.034 -2.717,-0.068 -4.081,-0.102 -5.509,-0.089 -11.056,-0.316 -16.687,-0.317 -2.811,-0.022 -5.635,-0.044 -8.472,-0.067 -2.842,0.034 -5.697,0.068 -8.564,0.103 -11.459,0.153 -23.142,0.536 -34.972,1.045 -5.925,0.335 -11.876,0.617 -17.872,1.024 -5.999,0.366 -12.023,0.697 -18.089,1.157 -15.922,1.169 -32.072,2.471 -48.327,3.838 -8.489,0.713 -16.997,1.438 -25.535,2.183 -12.49,0.96 -24.979,1.921 -37.419,2.877 -6.254,0.444 -12.477,0.885 -18.724,1.198 -6.237,0.35 -12.459,0.687 -18.679,0.95 -6.206,0.304 -12.417,0.524 -18.592,0.703 -6.175,0.164 -12.347,0.196 -18.466,0.287 -12.268,0.017 -24.4,-0.042 -36.36,-0.669 -7.899,-0.338 -15.706,-0.835 -23.417,-1.465 -15.625,-1.276 -30.823,-3.143 -45.373,-5.653 -21.752,-3.773 -41.933,-8.882 -60.402,-14.924 -6.317,-2.094 -12.417,-4.272 -18.297,-6.512 -10.87,-4.141 -20.957,-8.505 -30.048,-13.008 -6.995,-3.48 -13.435,-6.986 -19.158,-10.633 -5.772,-3.54 -10.824,-7.22 -15.253,-10.65 -2.157,-1.816 -4.23,-3.461 -6.091,-5.124 -1.82,-1.721 -3.549,-3.282 -5.071,-4.831 -1.489,-1.573 -2.867,-3.029 -4.129,-4.364 -1.21,-1.394 -2.268,-2.697 -3.224,-3.834 -0.475,-0.57 -0.922,-1.107 -1.341,-1.609 -0.395,-0.516 -0.728,-1.024 -1.056,-1.48 -0.647,-0.918 -1.191,-1.692 -1.629,-2.315 -0.876,-1.245 -1.329,-1.888 -1.329,-1.888 0,0 0.589,0.522 1.729,1.532 0.569,0.505 1.277,1.132 2.118,1.877 0.421,0.372 0.875,0.773 1.363,1.203 0.505,0.399 1.044,0.825 1.617,1.278 4.404,3.732 11.524,8.542 20.937,13.612 9.52,4.951 21.45,10.093 35.676,14.569 7.108,2.24 14.716,4.483 22.863,6.515 4.087,0.993 8.278,2.012 12.569,3.055 4.336,0.932 8.772,1.886 13.302,2.86 17.747,3.573 37.449,6.459 58.278,8.226 5.707,0.493 11.515,0.886 17.401,1.204 15.51,0.837 31.603,1.101 48.129,0.923 0.115,-0.002 0.229,-0.001 0.344,-0.003 11.456,-0.145 23.139,-0.561 34.966,-1.058 11.843,-0.64 23.83,-1.356 35.959,-2.209 24.236,-1.787 48.974,-3.893 73.868,-6.067 24.898,-1.977 49.961,-4.016 74.829,-5.033 6.206,-0.309 12.418,-0.499 18.591,-0.71 6.177,-0.158 12.347,-0.191 18.466,-0.276 12.267,0 24.397,0.035 36.354,0.665 2.987,0.141 5.962,0.281 8.924,0.421 2.963,0.198 5.914,0.395 8.85,0.592 5.869,0.318 11.686,0.943 17.428,1.506 1.448,0.147 2.892,0.293 4.332,0.439 1.393,0.161 2.782,0.321 4.167,0.48 2.817,0.347 5.709,0.678 8.486,1.058 5.591,0.718 11.12,1.536 16.556,2.459 10.875,1.878 21.44,3.975 31.567,6.541 10.117,2.611 19.831,5.501 28.987,8.854 9.145,3.375 17.781,7.051 25.717,11.161 7.925,4.124 15.219,8.519 21.669,13.239 6.448,4.716 12.146,9.592 16.954,14.54 4.809,4.956 8.736,9.934 11.964,14.595 3.122,4.751 5.665,9.103 7.43,13.104 1.902,3.912 3.203,7.387 4.092,10.246 0.809,2.556 1.204,4.604 1.453,6.095 0.029,0.174 0.066,0.374 0.091,0.532 C 0.749,1.371 0.814,2.153 0.814,2.153 0.814,2.153 0.568,1.404 0,0"
             style="fill:#1c75bc;fill-opacity:1;fill-rule:nonzero;stroke:none"
             id="path97" /></g><g
           id="g99"
           transform="translate(706.5297,603.3223)"><path
             d="m 0,0 86.336,66.996 c -1.005,0.212 -2.074,0.357 -3.284,0.357 h -201.691 c -19.984,0 -37.007,-2.533 -51.069,-7.586 -14.063,-5.059 -25.414,-12.212 -34.047,-21.464 -8.639,-9.253 -14.931,-20.482 -18.874,-33.677 -3.95,-13.202 -5.922,-27.941 -5.922,-44.224 v -32.579 l 31.736,-26.907 c 0.57,0.152 1.153,0.312 1.719,0.462 l 1.638,0.435 c 4.664,1.259 9.978,2.694 15.276,3.89 1.717,0.397 3.468,0.818 5.218,1.239 3.245,0.781 6.598,1.587 9.979,2.29 l 10.671,2.18 c 0,0.047 -0.001,0.092 -0.001,0.14 v 45.149 c 0,16.526 3.018,27.877 9.066,34.047 6.044,6.164 16.469,9.252 31.272,9.252 h 73.394 z"
             style="fill:#f7941e;fill-opacity:1;fill-rule:nonzero;stroke:none"
             id="path101" /></g><g
           id="g103"
           transform="translate(372.8802,580.3776)"><path
             d="m 0,0 c 0,-7.899 -1.73,-13.45 -5.182,-16.653 -3.457,-3.209 -9.379,-4.811 -17.764,-4.811 h -128.046 v 45.518 c 0,4.193 2.093,6.292 6.291,6.292 h 121.755 c 8.385,0 14.307,-1.665 17.764,-4.996 C -1.73,22.019 0,16.283 0,8.142 Z m 4.81,90.298 h -221.305 c -7.159,0 -10.733,-3.701 -10.733,-11.102 v -256.815 c -35.393,-28.127 -44.652,-63.759 -44.652,-63.759 48.355,46.496 108.319,59.267 146.922,62.262 h 5.561 33.746 l 5.879,8.869 c 15.785,21.107 31.172,39.145 45.696,54.413 h -116.916 v 50.702 h 132.487 c 7.153,0 12.149,-1.608 14.987,-4.812 2.346,-2.654 3.709,-6.938 4.115,-12.799 25.517,21.923 46.046,34.267 57.942,40.193 -1.455,0.926 -2.947,1.801 -4.508,2.582 5.67,3.944 10.731,9.251 15.17,15.913 4.442,6.662 6.665,15.416 6.665,26.275 V 25.906 C 75.866,46.381 70.312,62.23 59.209,73.46 48.109,84.684 29.976,90.298 4.81,90.298"
             style="fill:#1c75bc;fill-opacity:1;fill-rule:nonzero;stroke:none"
             id="path105" /></g><g
           id="g107"
           transform="translate(818.8071,480.7996)"><path
             d="M 0,0 C -3.725,-2.813 -7.484,-4.816 -11.037,-6.246 -32.6,-16.39 -73.703,-26.083 -151.412,-22.677 l -46.435,-56.861 c 21.823,-1.704 41.458,-1.558 59.122,0 17.663,1.557 33.346,4.53 47.261,8.484 C -7.087,-47.076 12.193,13.03 12.193,13.03 12.193,13.03 10.285,7.085 0,0"
             style="fill:#f7941e;fill-opacity:1;fill-rule:nonzero;stroke:none"
             id="path109" /></g></g></g></g></svg>
