<svg xmlns="http://www.w3.org/2000/svg" viewBox="0 0 1200 420">
  <path class="blue" d="M478.6518 261.5391c-41.0126-41.9568-89.7544-92.589-109.7875-117.353-44.4829-55.2064-14.3544-93.3776 22.3992-99.3715 35.4916-5.836 82.9716-7.2557 139.4427-2.6814 5.2055.4732 7.0984-6.7825 2.3662-8.9908C289.9939-78.5322 125.1549 121.1572 2.1172 263.7474c-3.3126 3.7856-.631 9.7794 4.4167 9.7794h45.587c4.1013 0 8.0449-1.735 10.7264-4.8897C120.5804 201.9162 185.2541 129.6747 260.812 87.56c11.6728-6.467 25.0808-13.2495 40.8548-19.5588 1.4197-.631 2.8394.7887 2.3662 2.2083-18.7712 50.159 17.036 98.7405 86.2841 168.1428H252.1362c5.0477-5.836 16.5627-20.032 24.923-29.9691 2.5238-2.997.3155-7.729-3.628-7.729h-49.0574c-4.1012 0-8.0448 1.7351-10.7264 4.8898-14.5121 16.8774-34.2297 40.8527-48.8996 58.361-3.3125 3.7856-.4732 9.7794 4.5745 9.7794h304.124c6.3097 0 9.4645-7.5711 5.0478-11.9877Z"/>
  <path class="black" d="M922.8281 419.4375c-4.1563 0-8.3281-.6094-12.5156-1.8281-4.0938-1.1875-7.7031-2.875-10.8281-5.0625l5.9531-9.7969c2.75 1.8438 5.5938 3.2656 8.5313 4.2656 2.9062 1 5.7187 1.5 8.4375 1.5 6.2812 0 10.0312-2.9531 11.25-8.8594l.6562-3.328c-3.5 1.9687-7.2969 2.953-11.3906 2.953-4.1563 0-7.9219-.9843-11.2969-2.953-3.3125-1.9376-5.9531-4.672-7.9219-8.2032-1.9062-3.4375-2.8593-7.3594-2.8593-11.7656 0-3.9688.7187-7.625 2.1562-10.9688 1.4688-3.375 3.4531-6.3437 5.9531-8.9062s5.4375-4.5625 8.8125-6c3.3438-1.4375 6.9062-2.1563 10.6875-2.1563 2.9063 0 5.6563.4219 8.25 1.2656 2.5625.8438 4.8125 2.1407 6.75 3.8907l.9375-4.5h12.8907l-10.9688 52.125c-1.25 5.9375-3.8906 10.4844-7.9219 13.6406-3.9688 3.125-9.1562 4.6875-15.5625 4.6875Zm-475.0781-19.5c-4.9063 0-9.25-1-13.0313-3-3.8125-2.0313-6.7968-4.8438-8.953-8.4375-2.1876-3.6563-3.2813-7.7343-3.2813-12.2344 0-3.875.703-7.5 2.1094-10.875 1.4062-3.375 3.3593-6.3594 5.8593-8.9531 2.4688-2.5625 5.3594-4.5781 8.6719-6.0469 3.25-1.4375 6.7343-2.1562 10.4531-2.1562 4.4375 0 8.3437 1.0312 11.7188 3.0937 3.375 2.0625 6.0312 4.8906 7.9687 8.4844 1.9063 3.5313 2.8594 7.703 2.8594 12.5156 0 .9688-.0156 1.7344-.0469 2.2969-.0625.875-.2031 2.125-.4219 3.75H435.375c.375 2.0625 1.1718 3.9219 2.3906 5.5781 1.2188 1.6563 2.7656 2.9219 4.6406 3.7969 1.9063.9063 4.0313 1.3594 6.375 1.3594 2.1875 0 4.1719-.3125 5.9532-.9375 1.9062-.6563 3.5468-1.5625 4.9219-2.7188l7.2187 8.3438c-3.25 2.2812-6.2969 3.8594-9.1406 4.7344-3 .9375-6.3281 1.4062-9.9844 1.4062Zm227.1094 0c-4.9063 0-9.25-1-13.0313-3-3.8125-2.0313-6.7968-4.8438-8.9531-8.4375-2.1875-3.6563-3.2813-7.7344-3.2813-12.2344 0-3.875.7032-7.5 2.1094-10.875 1.4063-3.375 3.3594-6.3594 5.8594-8.9531 2.4688-2.5625 5.3594-4.5781 8.6719-6.0469 3.25-1.4375 6.7343-2.1562 10.4531-2.1562 4.4375 0 8.3438 1.0312 11.7188 3.0937s6.0312 4.8906 7.9687 8.4844c1.9063 3.5313 2.8594 7.7031 2.8594 12.5156 0 .9688-.0157 1.7344-.0469 2.2969-.0625.875-.2031 2.125-.4219 3.75h-36.2812c.375 2.0625 1.1718 3.9219 2.3906 5.5781 1.2188 1.6563 2.7656 2.9219 4.6406 3.7969 1.9063.9063 4.0313 1.3594 6.375 1.3594 2.1875 0 4.1719-.3125 5.9532-.9375 1.9062-.6563 3.5468-1.5625 4.9218-2.7188l7.2188 8.3438c-3.25 2.2812-6.2969 3.8594-9.1407 4.7344-3 .9375-6.328 1.4062-9.9843 1.4062Zm-322.0586-.2813c-5.5938 0-9.6406-1.3437-12.1406-4.0312-1.7188-1.8438-2.5782-4.25-2.5782-7.2188 0-1.3125.172-2.7343.5157-4.2656l5.0625-24.2344H333.582l2.3438-10.9218h10.0781l2.6719-12.75 13.5469-3-3.375 15.75h13.9218l-2.2968 10.9219h-13.922l-4.828 21.9843c-.1563.75-.2344 1.4375-.2344 2.0625 0 1.3438.3437 2.4063 1.0312 3.1875.9375 1.0625 2.797 1.5938 5.5782 1.5938 1.125 0 2.1093-.0625 2.953-.1875.375-.0625 1.4376-.2656 3.1876-.6094l-2.2969 10.6875c-1.1562.25-2.6094.4844-4.3594.7031-1.625.2188-3.2187.3281-4.7812.3281Zm751.0683 0c-4.1875 0-7.953-1-11.2968-3-3.375-2-6.047-4.7656-8.0157-8.2968-2-3.5625-3-7.5-3-11.8125 0-3.875.7344-7.5469 2.2032-11.0156 1.4687-3.4375 3.4687-6.422 6-8.9532 2.5937-2.5937 5.5625-4.6094 8.9062-6.0469 3.4063-1.4687 6.9844-2.203 10.7344-2.203 3.0312 0 5.8125.4374 8.3437 1.3124 2.5938.9063 4.8438 2.2188 6.75 3.9375l4.5938-21.7969 13.5469-2.8593L1127.7754 399h-12.7969l.4688-2.4844c-3.625 2.0938-7.4844 3.1406-11.5782 3.1406Zm-110.6543-.0937c-5.1563 0-9.2812-1.2656-12.375-3.7969-3.0938-2.5312-4.6406-5.9062-4.6406-10.125 0-3.4062.8593-6.3437 2.5781-8.8125 1.6875-2.4375 4.0937-4.3281 7.2188-5.6719 3.0937-1.3437 6.8437-2.0156 11.25-2.0156 2.5 0 4.8437.2188 7.0312.6563 2.5.5 4.7031 1.1406 6.6094 1.9219l.5625-2.5782c.2188-1 .3281-1.9219.3281-2.7656 0-2.0313-.6093-3.6563-1.828-4.875-1.6876-1.6875-4.5782-2.5313-8.672-2.5313-1.9375 0-3.9687.25-6.0937.75-2.2188.5-4.8906 1.3438-8.0156 2.5313l-3.1875-9.8906c3.9062-1.5313 7.4374-2.6094 10.5937-3.2344 3.3125-.6563 6.4687-.9844 9.4688-.9844 5.0625 0 9.25.8281 12.5625 2.4844 3.25 1.625 5.5624 4 6.9375 7.125.7812 1.75 1.1718 3.75 1.1718 6 0 1.625-.203 3.3594-.6093 5.2031L1017.7773 399h-12.6562l.5625-3.0938c-2.0313 1.25-4.0469 2.172-6.0469 2.7657-2 .5937-4.1406.8906-6.4219.8906ZM366.1973 399l14.2968-67.2188 13.4532-2.8593-5.0157 23.7187c4.0625-2.9375 8.5781-4.4062 13.547-4.4062 4 0 7.3436.9062 10.0312 2.7187 2.75 1.8438 4.6562 4.3281 5.7187 7.4531.625 1.7813.9375 3.7032.9375 5.7657 0 1.5937-.1875 3.25-.5625 4.9687L412.2754 399H399.291l6.1875-28.5938c.1875-.9687.2813-1.8906.2813-2.7656 0-2.0625-.547-3.8125-1.6407-5.25-1.5625-2.0312-3.9375-3.0469-7.125-3.0469-1.9687 0-3.875.3907-5.7187 1.172-1.75.75-3.3281 1.8906-4.7344 3.4218L379.041 399h-12.8437Zm106.1992 0 10.6406-50.0156h12.8906l-1.078 4.9687c1.875-1.9062 3.9218-3.375 6.1405-4.4062 2.1876-1 4.5625-1.5 7.125-1.5 2.7813 0 4.8594.4375 6.2344 1.3125l-2.3906 11.5312c-.5938-.4062-1.625-.8125-3.0938-1.2187-1.2812-.3438-2.625-.5156-4.0312-.5156-5 0-9.1875 2.2656-12.5625 6.7968L485.334 399h-12.9375Zm35.9902 0 10.5469-50.0156h12.8906l-.7969 3.6562c4.1563-2.9375 8.7031-4.4062 13.6407-4.4062 4 0 7.3437.9062 10.0312 2.7187 2.75 1.8438 4.6563 4.3281 5.7188 7.4531.625 1.7813.9375 3.7032.9375 5.7657 0 1.5937-.1875 3.25-.5625 4.9687L554.4648 399h-12.9843l6.1875-28.5938c.1875-.9687.2812-1.8906.2812-2.7656 0-2.0625-.5469-3.8125-1.6406-5.25-1.5626-2.0312-3.9375-3.0469-7.125-3.0469-1.9688 0-3.875.3907-5.7188 1.172-1.7813.75-3.3906 1.8906-4.828 3.4218L521.2304 399h-12.8438Zm71.1387 0 14.2969-67.2188h12.8906l23.3437 44.672 9.375-44.672h12.8907L638.0253 399h-11.9062l-23.9062-46.1719L592.416 399h-12.8906Zm128.5586 0-3-50.0156h12l1.2656 32.25 16.5-32.25h10.8281l2.9063 32.25 14.9531-32.25h12.2813L751.7246 399h-12.375l-2.6719-32.0625L720.3652 399H708.084Zm78.4512 0 14.2968-67.2188h50.625l-2.625 12.0938h-36.9375l-3.375 15.375h24.422l-2.5313 11.7188h-24.2813l-3.4687 15.9375h37.453L837.5353 399h-51Zm57.5996 0 10.5468-50.0156h12.8907l-.797 3.6562c4.1564-2.9375 8.7032-4.4062 13.6407-4.4062 4 0 7.3438.9062 10.0313 2.7187 2.75 1.8438 4.6562 4.3281 5.7187 7.4531.625 1.7813.9375 3.7032.9375 5.7657 0 1.5937-.1875 3.25-.5625 4.9687L890.213 399h-12.9844l6.1875-28.5938c.1875-.9687.2813-1.8906.2813-2.7656 0-2.0625-.547-3.8125-1.6407-5.25-1.5625-2.0312-3.9374-3.0469-7.125-3.0469-1.9687 0-3.8749.3907-5.7187 1.172-1.7813.75-3.3906 1.8906-4.8281 3.4218L856.9785 399h-12.8437Zm110.418 0 14.2968-67.2188 13.4531-2.8593L967.3965 399h-12.8438Zm70.5292 0 10.547-50.0156h12.8905l-.7968 3.6562c4.1562-2.9375 8.703-4.4062 13.6406-4.4062 4 0 7.3437.9062 10.0312 2.7187 2.75 1.8438 4.6563 4.3281 5.7188 7.4531.625 1.7813.9375 3.7032.9375 5.7657 0 1.5937-.1875 3.25-.5625 4.9687L1071.1602 399h-12.9844l6.1875-28.5938c.1875-.9687.2812-1.8906.2812-2.7656 0-2.0625-.5468-3.8125-1.6406-5.25-1.5625-2.0312-3.9375-3.0469-7.125-3.0469-1.9687 0-3.875.3907-5.7187 1.172-1.7813.75-3.3907 1.8906-4.8282 3.4218L1037.9258 399h-12.8438Zm-27.461-8.7188c1.7188 0 3.4532-.25 5.2032-.75 1.6563-.4687 3.2187-1.1562 4.6875-2.0625l1.6406-7.2656c-3.4063-1.625-7.0625-2.4375-10.9687-2.4375-2.9688 0-5.3438.6094-7.125 1.8281-1.75 1.1875-2.625 2.8282-2.625 4.922 0 1.7812.8124 3.1874 2.4375 4.2187 1.6562 1.0312 3.9062 1.5469 6.75 1.5469Zm109.67-1.7343c2.0313 0 3.9375-.3281 5.7188-.9844 1.8437-.6875 3.4687-1.6406 4.875-2.8594l4.2187-19.7812c-1.25-1.5938-2.9844-2.8906-5.2031-3.8906-2.1875-1-4.5156-1.5-6.9844-1.5-2.875 0-5.5.7187-7.875 2.1562-2.4062 1.4688-4.2969 3.375-5.6719 5.7188-1.4062 2.375-2.1093 5.0312-2.1093 7.9687 0 2.5.5625 4.7656 1.6875 6.7969 1.125 2 2.6718 3.5625 4.6406 4.6875 1.9687 1.125 4.2031 1.6875 6.7031 1.6875Zm-180.9472-.1875c3.875 0 7.375-1.25 10.5-3.75l4.2187-19.875c-1.375-1.5625-3.1094-2.8125-5.2031-3.75-2.1875-.9688-4.4844-1.4531-6.8907-1.4531-2.875 0-5.5.703-7.875 2.1093-2.3437 1.375-4.203 3.25-5.578 5.625-1.3438 2.3125-2.0157 4.9531-2.0157 7.9219 0 2.4688.5469 4.7031 1.6406 6.7031 1.0938 2 2.6094 3.5781 4.5469 4.7344 1.9375 1.1563 4.1563 1.7344 6.6563 1.7344ZM436.125 369.0469h23.9063c-.375-2.0313-1.0782-3.7656-2.1094-5.2031-1.0313-1.4375-2.3125-2.5782-3.8438-3.422-1.5313-.8437-3.25-1.2656-5.1562-1.2656-1.9376 0-3.75.422-5.4375 1.2657-1.6876.8437-3.1563 1.9844-4.4063 3.4219-1.25 1.4062-2.2344 3.1406-2.9531 5.203Zm227.1094 0h23.9062c-.375-2.0313-1.0781-3.7656-2.1093-5.2031-1.0313-1.4375-2.3125-2.5782-3.8438-3.422-1.5313-.8437-3.25-1.2656-5.1563-1.2656-1.9375 0-3.75.422-5.4375 1.2657-1.6875.8437-3.1562 1.9844-4.4062 3.4219-1.25 1.4062-2.2344 3.1406-2.9531 5.203Zm-384.1127 9.7969 6.3281-29.8594h12.8437l-6.0468 28.5937c-.2188 1-.3282 1.9531-.3282 2.8594 0 2.0313.547 3.75 1.6407 5.1563 1.5625 2.0312 3.9531 3.0468 7.1718 3.0468 1.9688 0 3.8594-.4062 5.672-1.2187 1.7812-.7813 3.375-1.9063 4.7812-3.375l7.5-35.0625h12.8437L320.8873 399h-12.8906l.7968-3.6563c-4.1562 2.9375-8.703 4.4063-13.6406 4.4063-3.9375 0-7.25-.9063-9.9375-2.7188-2.75-1.8437-4.6562-4.328-5.7187-7.453-.625-1.7813-.9375-3.7032-.9375-5.7657 0-1.5625.1875-3.2188.5625-4.9688Zm-56.6625-2.9063c0-3.7813.7343-7.375 2.2031-10.7813 1.4063-3.2812 3.4219-6.2343 6.0469-8.8593 2.5625-2.5625 5.5468-4.5781 8.9531-6.0469 3.4063-1.4688 6.9844-2.2031 10.7344-2.2031 4.6875 0 8.875 1.0469 12.5625 3.1406 3.6875 2.0938 6.6093 4.953 8.7656 8.5781 2.1875 3.6563 3.2812 7.75 3.2812 12.2813 0 3.7813-.7343 7.375-2.203 10.7812-1.4063 3.25-3.4376 6.2031-6.0938 8.8594-2.5625 2.5625-5.5313 4.5781-8.9063 6.0469-3.375 1.4687-6.953 2.2031-10.7343 2.2031-4.7188 0-8.9219-1.0469-12.6094-3.1406-3.6875-2.0938-6.6094-4.9687-8.7656-8.625-2.1563-3.6563-3.2344-7.7344-3.2344-12.2344Zm12.7031-.6563c0 2.5938.5312 4.8907 1.5938 6.8907 1.0625 2 2.5312 3.5625 4.4062 4.6875s4.0312 1.6875 6.4688 1.6875c2.0312 0 3.9374-.4219 5.7187-1.2656 1.7188-.8125 3.2656-1.9532 4.6406-3.422 1.4063-1.5 2.4688-3.1874 3.1875-5.0624.75-1.9688 1.125-4 1.125-6.0938 0-2.6875-.5312-5-1.5937-6.9375s-2.5625-3.4844-4.5-4.6406c-1.875-1.125-4.0313-1.6875-6.4688-1.6875-1.9687 0-3.8437.4219-5.625 1.2656-1.7812.8438-3.3437 1.9844-4.6875 3.4219-1.4062 1.5-2.4687 3.1875-3.1875 5.0625-.7187 1.875-1.078 3.9063-1.078 6.0938Zm-74.6625 11.0625 9.1406-9.4218c3.4688 3.8438 7.0469 6.7031 10.7344 8.5781 3.75 1.9063 7.7187 2.8594 11.9063 2.8594 2.5312 0 4.7812-.3594 6.75-1.0781 1.9062-.6875 3.3906-1.7032 4.453-3.047 1.0626-1.3437 1.5938-2.8906 1.5938-4.6406 0-1.9062-.7343-3.453-2.2031-4.6406-1.5-1.2187-4-2.2656-7.5-3.1406l-12.5625-3.2344c-5-1.375-8.7187-3.4687-11.1562-6.2812-2.5-2.875-3.75-6.4219-3.75-10.6406 0-4.25 1.0468-7.9375 3.1406-11.0625 2.0937-3.125 5.0468-5.5313 8.8594-7.2188 3.8437-1.6875 8.4218-2.5313 13.7343-2.5313 5.4376 0 10.6406 1 15.6094 3 4.9375 1.9688 9.2969 4.7813 13.0781 8.4375l-8.5312 9.797c-3.375-3.25-6.7969-5.6563-10.2656-7.2188-3.5313-1.5938-7.25-2.3906-11.1563-2.3906-3.4375 0-6.2031.6875-8.2969 2.0625-2.0625 1.375-3.0937 3.25-3.0937 5.625 0 1.7187.6719 3.1406 2.0156 4.2656 1.3125 1.0937 3.4844 2.0625 6.5156 2.9062l12 2.9063c5.6876 1.3437 9.9531 3.4844 12.7969 6.4219 2.8438 2.9375 4.2656 6.578 4.2656 10.9218 0 4.4688-1.125 8.3906-3.375 11.7656-2.1875 3.3126-5.375 5.922-9.5625 7.8282-4 1.8437-8.828 2.7656-14.4843 2.7656-6.1563 0-11.8281-1.1563-17.0157-3.4688-5.25-2.3437-9.7968-5.7187-13.6406-10.125Zm-45.3113-28.9414.8086-3.6836h10.6914l2.291-10.916c.8685-3.983 2.4108-6.9479 4.627-8.8945 2.276-2.0065 5.181-3.0098 8.7148-3.0098 1.0781 0 2.1862.1049 3.3242.3145.9584.1797 1.9915.509 3.0996.9883l-.7187 3.8633c-.9883-.4792-1.9317-.8086-2.8301-.9883-.9883-.2097-1.9466-.3145-2.875-.3145-2.6354 0-4.7018.7038-6.1992 2.1113-1.5274 1.4375-2.6205 3.6537-3.2793 6.6485l-2.2012 10.1972h13.7012l-.8086 3.6836h-13.6113L121.0732 399h-3.953l8.7148-41.5977Zm-47.9227 21.4278c0-3.444.6589-6.7533 1.9766-9.9278 1.2578-3.0247 3.0696-5.7949 5.4355-8.3105 2.2461-2.3958 4.8815-4.2975 7.9063-5.705 2.9349-1.3777 6.0794-2.0665 9.4336-2.0665 3.8034 0 7.1575.9284 10.0625 2.7852 2.9948 1.9167 5.3606 4.4472 7.0976 7.5918 1.737 3.1745 2.6055 6.7382 2.6055 10.6914 0 3.5338-.6439 6.858-1.9316 9.9726-1.3178 3.1745-3.1146 5.9447-5.3907 8.3106-2.276 2.3659-4.9114 4.2526-7.9062 5.6601-2.935 1.3777-6.1094 2.0664-9.5235 2.0664-3.7135 0-7.0527-.9283-10.0175-2.7851-3.0248-1.8867-5.4056-4.4173-7.1426-7.5918s-2.6055-6.7383-2.6055-10.6914Zm4.043 0c0 3.2943.6888 6.2291 2.0664 8.8047 1.4076 2.6653 3.3242 4.7168 5.75 6.1543 2.4857 1.4974 5.2558 2.246 8.3105 2.246 2.7852 0 5.3457-.584 7.6817-1.7519 2.4557-1.2279 4.612-2.86 6.4687-4.8965 1.8568-2.0365 3.3542-4.4023 4.4922-7.0976 1.1081-2.6055 1.6621-5.4056 1.6621-8.4004 0-3.3542-.6888-6.304-2.0664-8.8496-1.4375-2.6055-3.3392-4.642-5.705-6.1094-2.4558-1.4974-5.226-2.2461-8.3106-2.2461-2.7253 0-5.2858.599-7.6816 1.7969-2.5456 1.2878-4.7168 2.905-6.5137 4.8515-1.8568 2.0365-3.3542 4.4024-4.4922 7.0977-1.108 2.6055-1.6621 5.4056-1.6621 8.4004ZM697.1234 274c-1.8929 0-2.8398-1.892-1.8933-3.3116l40.5389-59.9398c2.5238-3.7855 6.783-5.9942 11.3574-5.9942 2.3661 0 4.4159.474 6.4665 1.578 1.8929 1.1042 3.6291 2.5235 4.891 4.4162h.4733l40.5389 59.9398c.9464 1.4196-.1582 3.3116-1.8933 3.3116h-12.7751c-1.4197 0-2.6824-.7895-3.471-1.8936l-6.311-9.3058h-42.9055c-1.1042 0-1.7332-1.1028-1.1022-2.0491l6.4665-9.6237c.4732-.9464 1.578-1.418 2.6821-1.418h25.7104l-17.824-26.3415c-.4731-.631-1.7354 0-1.7354 0l-26.657 39.4323-6.311 9.3058c-.7888 1.2619-2.0514 1.8936-3.471 1.8936h-12.7752Zm-95.433-.3156c-1.2618 0-2.2088-1.1051-2.2088-2.2092V207.437c0-1.2619.947-2.2093 2.2089-2.2093h57.8894c13.0925 0 23.6616 10.4117 23.6616 23.5035l-.1577.3156c0 9.6217-5.6795 17.982-14.0397 21.6098l13.4086 19.7161c.9464 1.4196-.1582 3.3116-1.8933 3.3116h-12.6197c-1.262 0-2.5223-.6317-3.311-1.7358l-13.093-19.4006h-36.439v18.9272c0 1.2618-1.1024 2.2092-2.2065 2.2092h-11.1997Zm318.478 0c-1.262 0-2.2089-1.1051-2.2089-2.2092v-53.1543h-26.4992c-1.262 0-2.2089-.9474-2.2089-2.2093v-8.6745c0-1.2619.947-2.2093 2.2089-2.2093h68.6158c1.262 0 2.2089.9474 2.2089 2.2093v8.6745c0 1.2619-1.1047 2.2093-2.2089 2.2093H933.577v53.1543c0 1.2618-.947 2.2092-2.2089 2.2092h-11.1996Zm113.888 0c-18.929 0-34.2303-15.2993-34.2303-34.2271 0-18.928 15.3013-34.2295 34.2302-34.2295h38.9634c18.929 0 34.228 15.3016 34.228 34.2295 0 18.9278-15.299 34.227-34.228 34.227h-38.9634Zm85.3376 0c-.631 0-1.2622-1.2624-1.2622-1.2624v-62.4624c0-2.2082 1.8938-4.1005 4.1021-4.1005h8.202c2.0507 0 4.1025.7896 5.6799 2.2092l48.2675 44.322v-45.2688c0-.631 1.2622-1.2624 1.2622-1.2624h13.093c.631 0 1.2622 1.2624 1.2622 1.2624v62.4623c0 2.2083-1.8938 4.1006-4.1022 4.1006h-8.202c-2.0507 0-4.1024-.7896-5.6798-2.2092l-48.2676-44.322v45.2688c0 .631-1.2621 1.2624-1.2621 1.2624h-13.093Zm-572.9131-.1578c-1.262 0-2.2089-1.1028-2.2089-2.207v-53.1565h-26.5015c-1.262 0-2.2066-.9474-2.2066-2.2093v-8.6745c0-1.2619 1.1024-2.2093 2.2066-2.2093h68.6181c1.262 0 2.2089.9474 2.2089 2.2093v8.6745c0 1.2619-.9469 2.2093-2.2089 2.2093h-26.5015v53.1565c0 1.2619-1.1023 2.207-2.2066 2.207H546.481Zm285.1943 0c-18.9288 0-34.2302-15.2993-34.2302-34.2271 0-18.928 15.3014-34.2295 34.2302-34.2295h44.4832c1.262 0 2.2089.9474 2.2089 2.2093v8.6745c0 1.2619-.947 2.2093-2.2089 2.2093h-41.801c-11.6728 0-21.1372 9.4642-21.1372 21.1364 0 11.6722 9.4644 21.1363 21.1372 21.1363h41.801c1.262 0 2.2089.9451 2.2089 2.207v8.6768c0 1.2619-.947 2.207-2.2089 2.207h-44.4832Zm143.7028 0c-1.2196 0-2.2089-.9874-2.2089-2.207v-63.8825c0-1.2196.9893-2.2093 2.2089-2.2093h11.1997c1.2196 0 2.2065.9897 2.2065 2.2093v63.8825c0 1.2196-.987 2.207-2.2065 2.207H975.378Zm61.3605-12.933h33.599c11.6729 0 21.1373-9.4641 21.1373-21.1363 0-11.6722-9.4644-21.1364-21.1372-21.1364h-33.5991c-11.6728 0-21.1372 9.4642-21.1372 21.1364 0 11.6722 9.4644 21.1363 21.1372 21.1363Zm-421.484-21.2941h41.9588c5.8364 0 10.5686-4.7321 10.5686-10.5682 0-2.8392-1.2603-5.5217-3.1532-7.4145-2.0506-2.0505-4.5761-3.1537-7.5732-3.1537h-41.801v21.1364Zm-136.4451-51.5786-.3156-.3156c-3.1548 0-4.8906-3.3127-3.1555-5.8364l70.5115-104.2617c4.4167-6.467 11.8302-10.4104 19.7172-10.4104 3.9435 0 7.887 1.1054 11.1997 2.8405 3.3125 1.8927 6.3092 4.4153 8.5175 7.7277l70.5114 104.2617c1.7352 2.5237-.1583 5.8364-3.1554 5.8364h-22.2417c-2.366 0-4.7334-1.1055-5.9954-3.156l-10.8841-16.089h-74.4535c-1.893 0-2.8375-1.892-1.891-3.4694l11.3574-16.878c1.1042-1.5773 2.8381-2.5226 4.731-2.5226h44.7987l-30.9169-45.742c-.631-1.1042-2.209-1.1042-2.84 0l-46.3764 68.7698-10.8842 16.089c-1.4196 1.8928-3.627 3.156-5.9931 3.156h-22.2416Zm232.8247 0c-33.441 0-60.414-26.974-60.414-60.4132s26.973-60.4109 60.414-60.4109H780.41c16.0307-.0253 31.4121 6.3323 42.7477 17.667 10.884 11.0413 17.6661 26.0243 17.6661 42.744 0 15.1422-5.5194 28.8665-14.6684 39.4345l22.715 17.0336c1.735 1.2618.7884 3.945-1.2623 3.945h-32.0213c-1.4196 0-2.998-.4738-4.26-1.4202l-5.5197-4.1006c-7.7292 3.4701-16.2482 5.5208-25.2394 5.5208h-68.9336Zm205.5365 0c-33.3679-.0853-60.256-27.184-60.256-60.4132V71.6286c0-2.6814 2.0493-4.7318 4.7309-4.7318h18.2995c2.6817 0 4.731 2.0504 4.731 4.7318v55.6791c0 20.663 16.7216 37.3832 37.3856 37.3832h32.8103c20.664 0 37.3833-16.7202 37.3833-37.3832V71.6286c0-2.6814 2.0517-4.7318 4.7333-4.7318h18.2972c2.6816 0 4.731 2.0504 4.731 4.7318v55.6791c0 33.4393-26.9729 60.4132-60.4139 60.4132h-42.4322Zm105.055 0-.3156-.3156c-3.1548 0-4.8884-3.3127-3.1532-5.8364l70.5091-104.2617c4.4168-6.467 11.8302-10.4104 19.7172-10.4104 3.9436 0 7.8872 1.1054 11.1997 2.8405 3.3126 1.8927 6.3092 4.4153 8.5176 7.7277l70.5114 104.2617c1.7352 2.5237-.1583 5.8364-3.1555 5.8364h-22.2416c-2.366 0-4.7312-1.1055-5.9931-3.156l-10.8842-16.089h-74.4535c-1.893 0-2.8397-1.892-1.8933-3.4694l11.3575-16.878c1.1042-1.5773 2.8381-2.5226 4.731-2.5226h44.7987l-30.917-45.742c-.6309-1.1042-2.2089-1.1042-2.8399 0l-46.3742 68.7698-10.8841 16.089c-1.4196 1.8928-3.6294 3.156-5.9955 3.156h-22.2416Zm-305.385-22.8722h59.1517c2.0506 0 4.1026-.158 6.1532-.4734l-19.875-14.8266c-1.7352-1.2618-.7907-3.9427 1.2599-3.9427h32.0213c1.5774 0 2.998.4738 4.26 1.4202l5.2065 3.9427c5.0477-6.467 8.202-14.6704 8.202-23.5034 0-20.663-16.7217-37.3809-37.3857-37.3809h-59.1517c-10.4108 0-19.7186 4.1013-26.5015 10.8838h.3156c-6.7829 6.7825-11.042 16.2445-11.042 26.4971 0 20.663 16.7218 37.3832 37.3857 37.3832Z"/>
</svg>
