<svg class="aquatraction-logo" xmlns="http://www.w3.org/2000/svg" viewBox="0 0 1200 274">
  <path class="wave" d="M478.6518 261.5392c-41.0126-41.957-89.7544-92.589-109.7875-117.353-44.4829-55.2065-14.3544-93.3777 22.3992-99.3716 35.4916-5.836 82.9716-7.2557 139.4427-2.6814 5.2055.4732 7.0984-6.7825 2.3662-8.9908C289.9939-78.5322 125.1549 121.1572 2.1172 263.7474c-3.3126 3.7856-.631 9.7794 4.4167 9.7794h45.587c4.1013 0 8.0449-1.735 10.7264-4.8897C120.5804 201.9162 185.2541 129.6747 260.812 87.56c11.6728-6.467 25.0808-13.2495 40.8548-19.5588 1.4197-.631 2.8394.7887 2.3662 2.2083-18.7712 50.159 17.036 98.7405 86.2841 168.1428H252.1362c5.0477-5.836 16.5627-20.032 24.923-29.9691 2.5238-2.997.3155-7.729-3.628-7.729h-49.0574c-4.1012 0-8.0448 1.7351-10.7264 4.8898-14.5121 16.8774-34.2297 40.8527-48.8996 58.361-3.3125 3.7856-.4732 9.7794 4.5745 9.7794h304.124c6.3097 0 9.4645-7.5711 5.0478-11.9877Z"/>
  <path class="text" d="M697.1234 274c-1.8929 0-2.8398-1.892-1.8933-3.3116l40.5389-59.9398c2.5238-3.7855 6.783-5.9942 11.3574-5.9942 2.366 0 4.4158.474 6.4665 1.578 1.8929 1.1042 3.629 2.5235 4.891 4.4162h.4733l40.5389 59.9398c.9464 1.4196-.1582 3.3116-1.8933 3.3116h-12.7752c-1.4196 0-2.6823-.7895-3.471-1.8936l-6.311-9.3058h-42.9055c-1.104 0-1.733-1.1028-1.102-2.0491l6.4664-9.6237c.4732-.9464 1.578-1.418 2.6821-1.418h25.7104l-17.824-26.3415c-.4731-.631-1.7354 0-1.7354 0l-26.657 39.4323-6.311 9.3058c-.7888 1.2619-2.0514 1.8936-3.471 1.8936h-12.7752Zm-95.433-.3156c-1.2618 0-2.2088-1.1051-2.2088-2.2092V207.437c0-1.2619.947-2.2093 2.2088-2.2093H659.58c13.0924 0 23.6615 10.4117 23.6615 23.5035l-.1578.3156c0 9.6217-5.6793 17.982-14.0396 21.6098l13.4085 19.7161c.9465 1.4196-.1581 3.3116-1.8932 3.3116h-12.6197c-1.262 0-2.5223-.6317-3.311-1.7358l-13.093-19.4006h-36.439v18.9272c0 1.2618-1.1024 2.2092-2.2066 2.2092h-11.1997Zm318.478 0c-1.262 0-2.2089-1.1051-2.2089-2.2092v-53.1543h-26.4992c-1.262 0-2.2089-.9474-2.2089-2.2093v-8.6745c0-1.2619.947-2.2093 2.2089-2.2093h68.6158c1.262 0 2.2089.9474 2.2089 2.2093v8.6745c0 1.2619-1.1046 2.2093-2.2089 2.2093H933.577v53.1543c0 1.2618-.947 2.2092-2.2089 2.2092h-11.1997Zm113.8879 0c-18.929 0-34.2302-15.2993-34.2302-34.2271 0-18.928 15.3013-34.2295 34.2302-34.2295h38.9635c18.9288 0 34.2279 15.3016 34.2279 34.2295 0 18.9278-15.299 34.227-34.228 34.227h-38.9634Zm85.3376 0c-.6308 0-1.2622-1.2624-1.2622-1.2624v-62.4624c0-2.2082 1.8938-4.1005 4.1022-4.1005h8.202c2.0507 0 4.1024.7896 5.6798 2.2092l48.2676 44.322v-45.2688c0-.631 1.2622-1.2624 1.2622-1.2624h13.093c.6309 0 1.2622 1.2624 1.2622 1.2624v62.4623c0 2.2083-1.8938 4.1006-4.1021 4.1006h-8.202c-2.0507 0-4.1025-.7897-5.6799-2.2092l-48.2676-44.322v45.2688c0 .631-1.2622 1.2624-1.2622 1.2624h-13.093Zm-572.913-.1578c-1.262 0-2.2089-1.1028-2.2089-2.207v-53.1565h-26.5015c-1.262 0-2.2066-.9474-2.2066-2.2093v-8.6745c0-1.2619 1.1024-2.2093 2.2066-2.2093h68.6181c1.262 0 2.2089.9474 2.2089 2.2093v8.6745c0 1.2619-.9469 2.2093-2.2089 2.2093h-26.5015v53.1565c0 1.262-1.1024 2.207-2.2066 2.207h-11.1997Zm285.1943 0c-18.9288 0-34.2302-15.2992-34.2302-34.2271 0-18.928 15.3014-34.2295 34.2302-34.2295h44.4832c1.262 0 2.209.9474 2.209 2.2093v8.6745c0 1.2619-.947 2.2093-2.209 2.2093h-41.801c-11.6728 0-21.1372 9.4642-21.1372 21.1364 0 11.6721 9.4644 21.1364 21.1372 21.1364h41.801c1.262 0 2.209.945 2.209 2.2069v8.6768c0 1.262-.947 2.207-2.209 2.207h-44.4832Zm143.7027 0c-1.2196 0-2.2088-.9874-2.2088-2.207v-63.8825c0-1.2196.9892-2.2093 2.2088-2.2093h11.1997c1.2197 0 2.2066.9897 2.2066 2.2093v63.8825c0 1.2196-.9869 2.207-2.2066 2.207H975.378Zm61.3606-12.933h33.599c11.6729 0 21.1372-9.4641 21.1372-21.1363 0-11.6722-9.4643-21.1364-21.1372-21.1364h-33.599c-11.6728 0-21.1372 9.4642-21.1372 21.1364 0 11.6722 9.4644 21.1364 21.1372 21.1364Zm-421.484-21.2941h41.9588c5.8364 0 10.5686-4.7321 10.5686-10.5682 0-2.8392-1.2603-5.5217-3.1532-7.4145-2.0506-2.0505-4.576-3.1537-7.5732-3.1537h-41.801v21.1364Zm-136.4451-51.5786-.3156-.3156c-3.1548 0-4.8906-3.3127-3.1555-5.8364l70.5114-104.2617c4.4168-6.467 11.8302-10.4104 19.7173-10.4104 3.9435 0 7.8871 1.1054 11.1997 2.8405 3.3125 1.8927 6.3092 4.4153 8.5175 7.7277l70.5115 104.2617c1.7351 2.5237-.1584 5.8364-3.1556 5.8364h-22.2415c-2.3661 0-4.7335-1.1055-5.9955-3.156l-10.8841-16.089h-74.4536c-1.8928 0-2.8374-1.892-1.891-3.4694l11.3575-16.878c1.1042-1.5773 2.8381-2.5225 4.731-2.5225h44.7987L567.1447 99.706c-.631-1.1041-2.209-1.1041-2.8399 0l-46.3765 68.7699-10.8842 16.089c-1.4196 1.8928-3.627 3.156-5.9931 3.156h-22.2416Zm232.8246 0c-33.441 0-60.4138-26.974-60.4138-60.4132s26.9729-60.4109 60.4138-60.4109h68.776c16.0307-.0253 31.4121 6.3323 42.7477 17.667 10.884 11.0413 17.6662 26.0243 17.6662 42.744 0 15.1422-5.5195 28.8665-14.6685 39.4345l22.715 17.0335c1.735 1.262.7884 3.9451-1.2622 3.9451h-32.0214c-1.4196 0-2.998-.4738-4.2599-1.4202l-5.5198-4.1006c-7.7293 3.4701-16.2481 5.5208-25.2394 5.5208H711.634Zm205.5367 0c-33.368-.0853-60.2561-27.1841-60.2561-60.4132V71.6286c0-2.6814 2.0493-4.7318 4.731-4.7318h18.2994c2.6816 0 4.731 2.0504 4.731 4.7318v55.6791c0 20.663 16.7216 37.3832 37.3856 37.3832h32.8103c20.664 0 37.3833-16.7202 37.3833-37.3832V71.6286c0-2.6814 2.0516-4.7318 4.7333-4.7318h18.2972c2.6816 0 4.731 2.0504 4.731 4.7318v55.6791c0 33.4393-26.9729 60.4132-60.414 60.4132h-42.4319Zm105.0548 0-.3155-.3156c-3.1548 0-4.8884-3.3127-3.1532-5.8364l70.509-104.2617c4.4168-6.467 11.8304-10.4104 19.7174-10.4104 3.9436 0 7.887 1.1054 11.1997 2.8405 3.3125 1.8927 6.309 4.4153 8.5174 7.7277l70.5115 104.2617c1.7352 2.5237-.1583 5.8364-3.1555 5.8364h-22.2416c-2.366 0-4.7312-1.1055-5.9932-3.156l-10.8841-16.089h-74.4535c-1.893 0-2.8397-1.892-1.8933-3.4694l11.3575-16.878c1.1041-1.5773 2.8382-2.5225 4.731-2.5225h44.7987l-30.9169-45.7422c-.631-1.1041-2.209-1.1041-2.84 0l-46.3742 68.7699-10.8842 16.089c-1.4195 1.8928-3.6292 3.156-5.9953 3.156h-22.2417Zm-305.3849-22.8722h59.1517c2.0506 0 4.1026-.158 6.1532-.4734l-19.875-14.8266c-1.7352-1.2618-.7908-3.9427 1.2599-3.9427h32.0214c1.5774 0 2.9979.4738 4.2598 1.4202l5.2066 3.9427c5.0477-6.467 8.202-14.6704 8.202-23.5034 0-20.663-16.7217-37.3809-37.3857-37.3809H716.683c-10.411 0-19.7187 4.1013-26.5016 10.8838h.3156c-6.783 6.7825-11.042 16.2445-11.042 26.4971 0 20.663 16.7217 37.3832 37.3857 37.3832Z"/>
</svg>
