<svg xmlns="http://www.w3.org/2000/svg" viewBox="578.6 465.6 350.0 148.9">
  <path class="blue" d="M595.99,583.11c83.45-38.76,162.19-52.41,215.83-56.88,26.76-2.23,42.43,29.43,24.44,49.36l82.4-67.51c-15.77-.74-30.86-.95-45.43-.78l1.07-12.95c8.76-.12,15.64.05,20.16.23,3.06.13,5.11,3.16,4.1,6.05l12.23-8.82c-83.43-6.43-151.96,18.94-151.96,18.94,10.2-2.85,20.21-5.22,29.9-7.19l-1.18,9.98c-130.51,18.23-191.57,69.57-191.57,69.57M817.37,510.13l1.23-11.59c9.21-1.24,17.91-2.14,25.98-2.78l-1.15,12.47c-8.96.47-17.61,1.13-26.06,1.9M871.3,507.33c-8.86.12-17.52.39-25.93.81l1.15-12.53c9.7-.73,18.4-1.08,25.86-1.22l-1.07,12.95ZM790.72,503.17c8.96-1.78,17.64-3.21,25.93-4.37l-1.23,11.51c-8.89.84-17.56,1.8-25.89,2.94l1.19-10.08Z"/>
  <path class="orange" d="M739.11,476.33c-3.41-1.2-7.16-1.01-10.42.54-19.6,9.34-90.76,45.8-140.07,104.51,0,0,84.79-68.02,202.76-86.67l-52.26-18.38Z"/>
  <path class="blue" d="M759.05,571.55c-49.61-13.34-105.14-9.44-150.94,14.02,48.68-12.37,99.16-13.64,147.49-.97,35.54,9.41,74.77,25.94,113.1,17.55,12.75-2.73,25.15-8.2,34.48-16.95-11.04,6.39-23.2,9.68-35.43,10.58-38.26,2.99-71.72-14.27-108.71-24.22"/>
</svg>
