<svg xmlns="http://www.w3.org/2000/svg" viewBox="0 0 1000 550">
  <path class="blue" d="M381.69 176.7c0 10.55-2.31 17.97-6.92 22.25-4.62 4.29-12.54 6.43-23.74 6.43H179.92v-60.83c0-5.6 2.79-8.4 8.4-8.4h162.71c11.2 0 19.12 2.22 23.74 6.67 4.61 4.45 6.92 12.12 6.92 23zm6.43-120.669H92.383c-9.567 0-14.343 4.945-14.343 14.836V414.06c-47.296 37.58-59.669 85.2-59.669 85.2 64.618-62.14 144.749-79.2 196.339-83.2h52.52l7.86-11.86c21.09-28.2 41.66-52.31 61.06-72.71H179.92v-67.75h177.04c9.56 0 16.24 2.14 20.03 6.43 3.14 3.54 4.96 9.27 5.5 17.1 34.1-29.3 61.53-45.79 77.43-53.71-1.95-1.24-3.94-2.41-6.03-3.45 7.58-5.27 14.34-12.36 20.28-21.27 5.93-8.9 8.9-20.6 8.9-35.11v-31.65c0-27.36-7.42-48.541-22.26-63.548-14.83-14.999-39.06-22.501-72.69-22.501M998.91 352c-.75 1.87-2.01 4.59-3.88 7.97-1.85 3.33-4.37 7.29-7.73 11.63 0 .1-.1.13-.15.2-.85 1.1-1.65 2.29-2.62 3.43-.97 1.14-1.96 2.32-2.99 3.53-1.94 2.5-4.41 4.84-6.78 7.44-5.09 4.94-10.86 10.18-17.69 15.15-1.58 1.13-3.21 2.25-4.87 3.36-3.27 2.2-6.73 4.36-10.35 6.46-2.59 1.51-5.24 2.99-8.03 4.41-.31.16-.65.31-.97.48-17.08 8.72-37.57 15.98-60.62 21.36-23.46 5.56-49.53 9.23-77.38 11.43-6.98.49-14.04 1.04-21.22 1.41-3.62.22-7.14.35-10.79.52-1.86.1-3.73.15-5.6.22-1.81.1-3.63.1-5.45.14-7.37.12-14.78.42-22.3.42-3.76 0-7.53.1-11.33.1-3.79 0-7.61-.1-11.44-.13-15.31-.21-30.92-.72-46.73-1.4-7.92-.45-15.87-.82-23.89-1.37-8.01-.49-16.06-.93-24.17-1.54-21.28-1.57-42.86-3.31-64.58-5.13-11.34-.96-22.71-1.92-34.12-2.92-16.69-1.28-33.38-2.57-50.01-3.84-8.35-.6-16.67-1.19-25.02-1.61-8.33-.46-16.65-.91-24.96-1.27-8.29-.4-16.59-.7-24.84-.93-8.26-.22-16.5-.27-24.68-.39-16.4 0-32.61.1-48.59.9-10.56.45-20.99 1.11-31.29 1.95-20.88 1.71-41.19 4.2-60.64 7.56-29.06 5.04-56.03 11.87-80.71 19.94-8.44 2.8-16.6 5.71-24.45 8.7-14.53 5.54-28.009 11.37-40.158 17.39-9.347 4.65-17.953 9.33-25.601 14.21-7.713 4.73-14.464 9.64-20.383 14.23-2.882 2.42-5.653 4.62-8.139 6.84-2.433 2.3-4.743 4.39-6.777 6.46-1.99 2.1-3.831 4.05-5.518 5.83-1.6166 1.86-3.0304 3.61-4.308 5.13-.6347.76-1.232 1.47-1.792 2.15-.5278.69-.9728 1.36-1.4111 1.97-.8646 1.23-1.5916 2.26-2.1769 3.1C.60537 549.14.00002 550 .00002 550s.7871-.7 2.31048-2.05c.7604-.67 1.7065-1.51 2.8304-2.51.5626-.49 1.1693-1.03 1.8214-1.6.6748-.54 1.3951-1.11 2.1608-1.71 5.8849-4.99 15.3999-11.42 27.9789-18.19 12.722-6.62 28.664-13.49 47.675-19.47 9.498-2.99 19.663-5.99 30.553-8.71 5.46-1.32 11.06-2.68 16.8-4.08 5.79-1.24 11.72-2.52 17.77-3.82 23.72-4.78 50.05-8.63 77.88-10.99 7.63-.66 15.39-1.19 23.25-1.61 20.73-1.12 42.23-1.47 64.32-1.24h.46c15.31.19 30.92.75 46.72 1.41 15.83.86 31.85 1.81 48.06 2.95 32.38 2.39 65.44 5.21 98.71 8.11 33.27 2.64 66.76 5.37 100 6.73 8.29.41 16.59.66 24.84.95 8.25.21 16.5.25 24.68.37 16.39 0 32.6-.1 48.58-.89 3.99-.19 7.96-.38 11.92-.57 3.96-.26 7.9-.52 11.83-.79 7.84-.42 15.61-1.26 23.29-2.01 1.93-.2 3.86-.39 5.79-.59 1.86-.21 3.71-.43 5.57-.64 3.76-.46 7.62-.9 11.34-1.41 7.47-.96 14.86-2.05 22.12-3.29 14.53-2.51 28.65-5.31 42.18-8.74 13.52-3.49 26.5-7.35 38.74-11.83 12.22-4.51 23.76-9.42 34.37-14.92 10.59-5.51 20.33-11.38 28.95-17.69 8.62-6.3 16.23-12.81 22.66-19.43 6.43-6.62 11.67-13.27 15.99-19.5 4.17-6.35 7.57-12.17 9.93-17.51 2.54-5.23 4.28-9.87 5.46-13.69 1.08-3.42 1.61-6.16 1.95-8.15 0-.23.1-.5.12-.71.3-2.02.39-3.07.39-3.07s-.33 1-1.09 2.88m-489.06-44.51c1-.31 1.99-.62 2.99-.93 6.54-2.11 13.18-3.89 19.76-5.85 3.04-.92 6.11-1.75 9.18-2.57v11.41c-10.6 2.2-21.26 4.62-31.93 7.28zm38.55-11.11c1.36-.36 2.73-.72 4.08-1.09 6.62-1.83 13.31-3.4 19.99-5 6.36-1.54 12.73-3.07 19.15-4.37v14.7c-14.17 2.16-28.62 4.67-43.22 7.58zm49.85-11.86c4.81-1.03 9.62-2.07 14.45-2.95l20.26-3.6c6.75-1.21 13.56-1.98 20.34-2.99l1.92-.28v18.25c-18.12 1.65-37.24 3.83-56.97 6.69zm63.6-10.75 1.62-.23 10.22-1.03c6.82-.63 13.62-1.46 20.44-1.92l20.49-1.05 5.11-.27h9.16v19.3c-19.65.55-42.34 1.68-67.04 3.79zM315.87 404.94c3.16-.17 6.33-.33 9.51-.47 15.98-.84 32.19-.92 48.58-.9 8.18.13 16.43.17 24.68.39 8.25.24 16.55.53 24.84.94 8.32.35 16.63.8 24.97 1.27 8.35.42 16.66 1 25.02 1.6 16.62 1.28 33.31 2.56 50 3.84 33.26 2.9 66.32 5.67 98.71 8.05 8.1.61 16.15 1.06 24.17 1.54 8.01.55 15.96.93 23.88 1.37 4.96.22 9.85.38 14.77.55l10.25-1.41 108.29-132.6s-26.37-1.64-68.02-.71v-19.11c6.68 0 13.37-.1 20.01.54l9.81.65-3.05 8.31 24.84-15.53-10.47-.44-20.82-.86c-6.94-.48-13.87-.15-20.8 0l-10.39.24-5.19.13-5.17.4-20.69 1.59c-6.88.65-13.72 1.66-20.58 2.47l-10.28 1.3-10.22 1.7c-6.79 1.19-13.63 2.15-20.39 3.54l-20.27 4.13c-6.75 1.41-13.43 3.14-20.14 4.69-6.72 1.51-13.38 3.3-20.03 5.1-6.65 1.77-13.32 3.51-19.91 5.52-6.59 1.99-13.24 3.78-19.78 5.94-6.54 2.13-13.15 4.08-19.64 6.35-6.51 2.24-13.05 4.38-19.51 6.77-6.48 2.3-12.93 4.7-19.35 7.17-6.42 2.47-12.81 5.02-19.15 7.7 6.4-2.52 12.86-4.9 19.33-7.21 6.48-2.3 12.98-4.54 19.51-6.67 3.33-1.13 6.68-2.2 10.03-3.25v8.96c-67.18 17.39-134.19 44.47-187.35 86.43"/>
  <path class="orange" d="M976.47 309.77c-4.98 3.76-10 6.43-14.75 8.34-28.81 13.56-83.74 26.51-187.58 21.96l-62.06 75.99c29.17 2.27 55.4 2.08 79.01 0 23.6-2.08 44.56-6.06 63.16-11.34C967 372.68 992.77 292.35 992.77 292.35s-2.55 7.95-16.3 17.42M826.43 146.04l115.38-89.532c-1.35-.283-2.78-.477-4.39-.477H667.89c-26.7 0-49.45 3.385-68.24 10.138-18.8 6.76-33.96 16.319-45.5 28.682-11.55 12.369-19.95 27.369-25.22 44.999-5.28 17.65-7.92 37.34-7.92 59.1v43.54l42.41 35.96c.76-.21 1.54-.42 2.3-.62l2.19-.58c6.23-1.69 13.33-3.6 20.41-5.2 2.3-.53 4.64-1.09 6.98-1.66 4.33-1.04 8.81-2.12 13.33-3.06l14.26-2.91V203.9c0-22.09 4.03-37.25 12.11-45.5 8.08-8.24 22.01-12.36 41.79-12.36h98.08zM286.26 407c1.01-.1 2.02-.2 3.04-.28 28.53-24.74 133.13-108.79 257.98-128.42l-45.18-38.31s-8.84-10.8-26.03-2.45c0 0-80.22 15.77-189.81 169.46"/>
</svg>

