<svg xmlns="http://www.w3.org/2000/svg" viewBox="580.6 467.6 758.8 144.9">
  <g>
    <path class="blue" d="M595.99,583.11c83.45-38.76,162.19-52.41,215.83-56.88,26.76-2.23,42.43,29.43,24.44,49.36l82.4-67.51c-15.77-.74-30.86-.95-45.43-.78l1.07-12.95c8.76-.12,15.64.05,20.16.23,3.06.13,5.11,3.16,4.1,6.05l12.23-8.82c-83.43-6.43-151.96,18.94-151.96,18.94,10.2-2.85,20.21-5.22,29.9-7.19l-1.18,9.98c-130.51,18.23-191.57,69.57-191.57,69.57M817.37,510.13l1.23-11.59c9.21-1.24,17.91-2.14,25.98-2.78l-1.15,12.47c-8.96.47-17.61,1.13-26.06,1.9M871.3,507.33c-8.86.12-17.52.39-25.93.81l1.15-12.53c9.7-.73,18.4-1.08,25.86-1.22l-1.07,12.95ZM790.72,503.17c8.96-1.78,17.64-3.21,25.93-4.37l-1.23,11.51c-8.89.84-17.56,1.8-25.89,2.94l1.19-10.08Z"/>
    <path class="orange" d="M739.11,476.33c-3.41-1.2-7.16-1.01-10.42.54-19.6,9.34-90.76,45.8-140.07,104.51,0,0,84.79-68.02,202.76-86.67l-52.26-18.38Z"/>
    <path class="blue" d="M759.05,571.55c-49.61-13.34-105.14-9.44-150.94,14.02,48.68-12.37,99.16-13.64,147.49-.97,35.54,9.41,74.77,25.94,113.1,17.55,12.75-2.73,25.15-8.2,34.48-16.95-11.04,6.39-23.2,9.68-35.43,10.58-38.26,2.99-71.72-14.27-108.71-24.22"/>
  </g>
  <g>
    <path class="blue" d="M1014.25,560.16c0,4.86-3.56,22.54-33.69,22.54h-31.67v-86.82h31.67c26.69,0,29.89,18.86,29.89,22.65,0,11.98-7.95,17.44-15.06,19.93,8.54,2.02,18.86,7.36,18.86,21.71M978.67,500.03h-16.72v35.82h19.21c7.12,0,16.37-5.34,16.37-16.73,0-12.22-7.95-19.09-18.86-19.09M999.9,559.57c0-17.91-18.86-19.57-22.54-19.57h-15.42v38.07h18.62s19.34-.47,19.34-18.5"/>
    <path class="blue" d="M1100.93,566.81c-1.07,2.13-10.68,18.03-35.35,18.03-26.45,0-41.87-20.16-41.87-45.19s15.42-45.19,41.87-45.19c25.03,0,34.52,16.49,35.47,18.15l-2.84,2.96c-27.16-32.62-59.55-11.03-59.55,24.08,0,32.26,32.26,56.81,59.31,24.32l2.96,2.85Z"/>
    <polygon class="blue" points="1170.93 534.04 1165.14 534.04 1160.44 506.89 1145.73 534.04 1132.26 508.67 1129.34 534.04 1126.91 534.04 1131.45 494.45 1147.62 525.17 1164.33 494.45 1171.15 533.99 1170.93 534.04"/>
    <path class="blue" d="M1175.46,534.04l17.74-39.59,18.17,39.59h-6.54l-3.41-7.46h-19.96l-3.35,7.46h-2.65ZM1182.38,524.52h18.06l-9.14-19.9-8.92,19.9Z"/>
    <path class="blue" d="M1224.98,516.19c-1.62.05-3.14.05-4.43.05v17.79h-5.95v-39.59h5.95c6.22,0,18.82-.16,18.82,11.09,0,6.33-3.84,9.03-8.28,10.17l13.2,18.33h-6.65l-12.66-17.85ZM1226.93,513.97c1.03-.16,2.06-.48,2.92-1.03.43-.33.81-.65,1.19-1.08.38-.43.76-.97.97-1.51.32-.65.54-1.35.7-2.05.16-.87.22-1.84.22-2.76-.27-8.6-6.92-9.19-8.11-9.19h-4.27v17.79h4.27c.7,0,1.41-.05,2.11-.16"/>
    <rect class="blue" x="1249.69" y="494.45" width="5.41" height="39.59"/>
    <polygon class="blue" points="1291.76 534.04 1262.93 505.76 1262.93 534.04 1260.5 534.04 1260.5 494.5 1289.32 522.74 1289.32 494.5 1291.76 494.5 1291.76 534.04"/>
    <polygon class="blue" points="1321 531.98 1321 534.04 1296.07 534.04 1296.07 494.45 1321 494.45 1321 496.51 1302.02 496.51 1302.02 512.19 1317.87 512.19 1317.87 514.62 1302.02 514.62 1302.02 531.98 1321 531.98"/>
    <path class="orange" d="M1162.11,576.62c-.49.97-4.87,8.22-16.12,8.22-12.06,0-19.09-9.19-19.09-20.6s7.03-20.6,19.09-20.6c11.41,0,15.74,7.52,16.17,8.27l-1.3,1.35c-12.39-14.87-27.15-5.03-27.15,10.98,0,14.71,14.71,25.9,27.04,11.09l1.35,1.3Z"/>
    <path class="orange" d="M1164.86,583.86l17.74-39.59,18.17,39.59h-6.54l-3.41-7.46h-19.96l-3.35,7.46h-2.65ZM1171.78,574.34h18.06l-9.14-19.9-8.92,19.9Z"/>
    <polygon class="orange" points="1235.26 583.86 1206.44 555.58 1206.44 583.86 1204 583.86 1204 544.33 1232.83 572.56 1232.83 544.33 1235.26 544.33 1235.26 583.86"/>
    <polygon class="orange" points="1274.78 544.27 1260.02 577.91 1257.04 584.67 1255.75 581.64 1239.58 544.27 1245.47 544.27 1258.72 574.88 1272.08 544.27 1274.78 544.27"/>
    <path class="orange" d="M1268.28,583.86l17.74-39.59,18.17,39.59h-6.54l-3.41-7.46h-19.95l-3.35,7.46h-2.65ZM1275.2,574.34h18.06l-9.14-19.9-8.93,19.9Z"/>
    <path class="orange" d="M1331.38,573.64c0,4.11-3.03,10.92-12.39,10.92-7.41,0-12.17-3.19-13.3-11.3h1.78c1.19,7.41,7.36,9.03,10.93,9.03,6.33,0,7.84-4.43,7.84-6.38,0-4.16-3.41-6.43-9.9-9.79-4.11-2.11-11.09-5.57-11.09-12.33,0-8.6,8.49-10.33,11.52-10.33,7.57,0,10.71,4,11.79,9.68h-1.95c-.81-2.97-2.97-7.46-9.79-7.46-3.35,0-6.92,2.7-6.92,6.11,0,4,4.81,6.54,9.79,9.09,9.41,4.71,11.68,8.06,11.68,12.76"/>
    <rect class="blue" x="1112.69" y="494.45" width="2.51" height="90.38"/>
  </g>
</svg>
