<svg xmlns="http://www.w3.org/2000/svg" viewBox="0 0 512 512">
  <path d="M425.852 218.547l-22.781-.409-.156-.001a8.502 8.502 0 00-.15 17.002l22.781.409.156.001a8.502 8.502 0 00.15-17.002zM501.49 336.875c-14.567 0-22.105 7.301-28.163 13.169-5.21 5.045-8.652 8.379-16.333 8.379-7.682 0-11.123-3.334-16.334-8.379-6.059-5.867-13.598-13.169-28.165-13.169s-22.106 7.301-28.164 13.168c-5.211 5.047-8.652 8.38-16.334 8.38-5.062 0-7.995-1.534-9.984-2.87a8.502 8.502 0 00-9.482 14.114c5.769 3.876 12.136 5.76 19.466 5.76 14.567 0 22.106-7.301 28.164-13.168 5.211-5.047 8.652-8.38 16.334-8.38 7.683 0 11.125 3.334 16.335 8.38 6.059 5.867 13.597 13.168 28.164 13.168 14.567 0 22.105-7.301 28.163-13.169 5.21-5.045 8.652-8.379 16.333-8.379a8.502 8.502 0 000-17.004zM336.688 339.294c-4.059-1.628-8.373-2.419-13.19-2.419-14.566 0-22.104 7.302-28.162 13.169-5.21 5.045-8.651 8.379-16.331 8.379-7.682 0-11.123-3.334-16.334-8.379-6.059-5.867-13.598-13.169-28.164-13.169s-22.106 7.301-28.164 13.169c-5.21 5.045-8.652 8.379-16.334 8.379-7.683 0-11.126-3.334-16.337-8.38-6.059-5.867-13.598-13.168-28.165-13.168s-22.106 7.301-28.165 13.168c-5.21 5.047-8.652 8.38-16.335 8.38-7.684 0-11.128-3.334-16.339-8.38-6.059-5.867-13.599-13.168-28.167-13.168-14.568 0-22.107 7.301-28.166 13.168-5.211 5.047-8.655 8.38-16.339 8.38a8.502 8.502 0 000 17.004c14.568 0 22.109-7.301 28.167-13.168 5.211-5.047 8.653-8.38 16.339-8.38 7.685 0 11.128 3.334 16.339 8.38 6.059 5.867 13.599 13.168 28.167 13.168 14.567 0 22.106-7.301 28.164-13.168 5.21-5.047 8.652-8.38 16.336-8.38 7.683 0 11.125 3.334 16.335 8.38 6.059 5.867 13.598 13.168 28.165 13.168 14.567 0 22.105-7.301 28.164-13.168 5.21-5.047 8.652-8.38 16.335-8.38s11.125 3.334 16.335 8.38c6.059 5.867 13.597 13.168 28.164 13.168 14.566 0 22.103-7.301 28.161-13.169 5.21-5.045 8.651-8.379 16.332-8.379 2.607 0 4.852.392 6.86 1.197a8.503 8.503 0 006.329-15.782z"/>
  <path d="M496.687 218.112c.057-.101.11-.202.161-.305l.017-.034c1.392.393 2.762.796 4.091 1.212a8.492 8.492 0 002.543.391 8.502 8.502 0 002.538-16.616 184.04 184.04 0 00-11.663-3.218l-.01-.003c-34.44-8.379-80.37-10.37-130.908-8.421l-62.821-51.178a8.506 8.506 0 00-4.411-1.856c-93.664-10.645-232.036 38.41-237.879 40.504-.022.008-.041.018-.062.025-.02.008-.041.011-.06.019l-18.137 6.813a8.502 8.502 0 005.979 15.918l8.461-3.178 5.414 32.466c-32.518 6.293-53.029 10.838-53.281 10.893a8.499 8.499 0 00-6.292 10.764l16.136 53.25c-1.342.304-2.817.474-4.505.474a8.502 8.502 0 000 17.004c14.568 0 22.109-7.301 28.167-13.168 5.211-5.047 8.653-8.38 16.339-8.38 7.685 0 11.128 3.334 16.339 8.38 6.059 5.867 13.599 13.168 28.167 13.168 14.567 0 22.106-7.301 28.164-13.168 5.21-5.047 8.652-8.38 16.335-8.38a8.502 8.502 0 000-17.004c-14.567 0-22.106 7.301-28.165 13.168-5.21 5.047-8.652 8.38-16.335 8.38-7.684 0-11.128-3.334-16.339-8.38-6.059-5.867-13.599-13.168-28.167-13.168-12.46 0-19.773 5.341-25.421 10.558l-11.767-38.833c12.476-2.647 37.181-7.748 69.148-13.645a8.502 8.502 0 10-3.085-16.721c-2.974.549-5.885 1.09-8.732 1.624l-5.865-35.172c12.36-4.147 40.624-13.209 74.842-21.467 12.742-3.075 25.084-5.742 36.977-8.003 3.651 7.974 10.282 24.031 15.057 44.555-28.776 4.115-56.787 8.644-82.905 13.194a8.502 8.502 0 00-6.917 9.835c.805 4.626 5.204 7.717 9.835 6.917 214.3-37.331 316.418-32.036 361.887-23.563-6.98 11.737-29.529 47.548-58.195 71.759-2.643-.648-5.567-1.037-8.868-1.037-14.567 0-22.106 7.301-28.164 13.169-5.211 5.045-8.652 8.379-16.334 8.379s-11.123-3.334-16.334-8.379c-6.058-5.867-13.597-13.169-28.164-13.169-14.566 0-22.104 7.302-28.162 13.169-5.21 5.045-8.651 8.379-16.331 8.379-7.682 0-11.123-3.334-16.334-8.379-6.059-5.867-13.598-13.169-28.164-13.169s-22.106 7.301-28.164 13.169c-5.21 5.045-8.652 8.379-16.334 8.379-7.006 0-10.562-2.869-14.821-6.92a8.501 8.501 0 10-11.721 12.317c5.901 5.616 13.306 11.606 26.542 11.606 14.567 0 22.105-7.301 28.164-13.168 5.21-5.047 8.652-8.38 16.335-8.38 7.683 0 11.125 3.334 16.335 8.38 6.058 5.867 13.597 13.168 28.164 13.168 14.566 0 22.103-7.301 28.161-13.169 5.21-5.045 8.651-8.379 16.332-8.379 7.682 0 11.123 3.334 16.334 8.379 6.058 5.867 13.597 13.169 28.164 13.169s22.106-7.301 28.164-13.169c5.211-5.045 8.652-8.379 16.334-8.379 7.683 0 11.125 3.334 16.336 8.38 6.059 5.867 13.597 13.168 28.164 13.168s22.105-7.301 28.163-13.169c5.21-5.045 8.652-8.379 16.333-8.379 4.696 0 8.502-3.806 8.502-8.502s-3.805-8.502-8.502-8.502c-14.567 0-22.105 7.301-28.163 13.169-5.21 5.045-8.652 8.379-16.333 8.379-7.682 0-11.123-3.334-16.334-8.379-1.113-1.078-2.278-2.205-3.525-3.326 34.345-31.008 58.461-74.243 59.55-76.215zm-282.126-13.09c-4.442-19.679-10.473-35.533-14.683-45.241 35.888-5.815 67.089-7.565 91.972-5.066l46.248 37.677c-40.158 2.466-82.398 7.051-123.537 12.63z"/>
</svg>
