<svg xmlns="http://www.w3.org/2000/svg" viewBox="0 0 426 443">
  <style>
    .st0{fill:#b6b6b6}
  </style>
  <path d="M415.8 147.5V28c0-10.8-8.7-19.5-19.5-19.5H31.7c-10.8 0-19.5 8.7-19.5 19.5V413.7c0 10.8 8.7 19.5 19.5 19.5h364.7c10.8 0 19.5-8.8 19.5-19.5v-73.6c0-4.1-3.4-7.5-7.5-7.5s-7.5 3.4-7.5 7.5v73.6c0 2.5-2 4.5-4.5 4.5H31.7c-2.5 0-4.5-2-4.5-4.5V82.1h15.7c4.1 0 7.5-3.4 7.5-7.5s-3.4-7.5-7.5-7.5H27.2V28c0-2.5 2-4.5 4.5-4.5h364.7c2.5 0 4.5 2 4.5 4.5v39.1H74.7c-4.1 0-7.5 3.4-7.5 7.5s3.4 7.5 7.5 7.5h326.2v224.2c0 4.1 3.4 7.5 7.5 7.5s7.5-3.4 7.5-7.5V147.5z" class="st0"/>
  <path d="M58.2 48.1c0 4.2-3.4 7.6-7.6 7.6-4.2 0-7.6-3.4-7.6-7.6 0-4.2 3.4-7.6 7.6-7.6 4.2 0 7.6 3.4 7.6 7.6zM85.7 48.1c0 4.2-3.4 7.6-7.6 7.6-4.2 0-7.6-3.4-7.6-7.6 0-4.2 3.4-7.6 7.6-7.6 4.2 0 7.6 3.4 7.6 7.6zM113.2 48.1c0 4.2-3.4 7.6-7.6 7.6-4.2 0-7.6-3.4-7.6-7.6 0-4.2 3.4-7.6 7.6-7.6 4.2 0 7.6 3.4 7.6 7.6zM331 96.3H82.5c-4.1 0-7.5 3.4-7.5 7.5v114.4c0 4.1 3.4 7.5 7.5 7.5H331c4.1 0 7.5-3.4 7.5-7.5V103.8c0-4.1-3.3-7.5-7.5-7.5zm-7.5 114.4H90v-99.4h233.5v99.4z" class="st0"/>
  <path d="M146.8 197.4l38.8-.1c.4.1.8.1 1.2.1l79.9-.2c3 0 5.8-1.8 6.9-4.6s.5-6-1.6-8.2l-39.9-39.9c-1.4-1.4-3.3-2.2-5.3-2.2s-3.9.8-5.3 2.2l-14.7 14.7-14.7-14.7c-1.4-1.4-3.3-2.2-5.3-2.2s-3.9.8-5.3 2.2l-40.1 40.1c-2.1 2.1-2.8 5.4-1.6 8.2 1.3 2.8 4 4.6 7 4.6zm80.1-36.9l21.8 21.8-43.7.1 7.2-7.2 14.7-14.7zm-40 0l9.4 9.4-12.5 12.5H165l21.9-21.9zM214.9 131.6c0 4.2-3.4 7.6-7.6 7.6-4.2 0-7.6-3.4-7.6-7.6 0-4.2 3.4-7.6 7.6-7.6 4.2 0 7.6 3.4 7.6 7.6zM331 248H82.5c-4.1 0-7.5 3.4-7.5 7.5s3.4 7.5 7.5 7.5H331c4.1 0 7.5-3.4 7.5-7.5 0-4.2-3.3-7.5-7.5-7.5zM331 281.6H82.5c-4.1 0-7.5 3.4-7.5 7.5s3.4 7.5 7.5 7.5H331c4.1 0 7.5-3.4 7.5-7.5s-3.3-7.5-7.5-7.5zM331 315.2H82.5c-4.1 0-7.5 3.4-7.5 7.5s3.4 7.5 7.5 7.5H331c4.1 0 7.5-3.4 7.5-7.5s-3.3-7.5-7.5-7.5zM331 348.8H82.5c-4.1 0-7.5 3.4-7.5 7.5s3.4 7.5 7.5 7.5H331c4.1 0 7.5-3.4 7.5-7.5s-3.3-7.5-7.5-7.5zM210.5 382.5h-128c-4.1 0-7.5 3.4-7.5 7.5s3.4 7.5 7.5 7.5h128c4.1 0 7.5-3.4 7.5-7.5s-3.3-7.5-7.5-7.5z" class="st0"/>
</svg>
