<svg version="1" xmlns="http://www.w3.org/2000/svg" width="933.333" height="933.333" viewBox="0 0 700.000000 700.000000"><path d="M318.5 76.6C228 130.3 161 183.6 121.4 233.5c-36.7 46.1-62.7 102.2-80.8 174-3.8 15.2-4.7 22.2-4.7 38.5 0 17.4 1.1 25.2 5.2 37.5 20.1 60.4 71.2 101.4 156.4 125.6 50.2 14.3 94.7 19.7 152.5 18.6 67.7-1.3 104.7-9.3 149.5-32.6 48-24.9 88.6-60.8 121.2-107.3 34.2-48.6 48.7-91.1 47-137.8-1.2-34.4-12.2-67.4-32.3-97.2-21.6-32.1-59.5-67.9-95.9-90.8-24.3-15.4-45.1-25-78.5-36.5-35-12-51.8-20.1-70-33.6-15.5-11.5-23.6-16.8-32.2-20.9-7.5-3.7-8.8-4-16.2-3.9h-8.1l-16 9.5zm60.1 23.3c25 10.7 54.7 30.8 81.2 54.9 8.1 7.4 9.2 8.2 9.2 6 0-4.1-4.7-11.9-11.6-19.5-4.8-5.4-6.2-7.4-5.1-7.9 3.2-1.2 41.2 19.8 67.2 37.1 22.8 15.2 41 30 58.5 47.5 23.5 23.5 38.3 43.4 49.5 66.5 10.7 22 15.7 40.8 17.7 66.3 1.7 22-.3 30-10.4 40.3-6.2 6.2-14.2 10.1-22 10.7-3.3.3-5.9 1-6.2 1.7-1 2.6 2.6 5.5 9.5 7.6 7.9 2.4 13.4 2.1 18.7-1.1 1.8-1.1 3.6-2 4-2 1.4 0-.3 9.6-2.2 12.4-2.6 4-7.1 6.3-13.7 7.1-3.2.4-6.3 1.3-6.9 2-1.5 1.8 2.9 5.1 9.7 7.1l5.3 1.5-6 11.7c-12.3 24.2-27.7 44.9-48.1 64.7-22.1 21.5-44.5 36.7-80.9 54.9-48.8 24.4-89 36.3-128.8 38.1l-11.7.5 4.5-2.1c6-2.8 25.5-9.2 36-11.8 4.7-1.1 15.9-3.8 25-6 21.9-5.4 26-6.7 23.7-7.6-2.5-1-13.4-.1-35.2 2.9-44.3 6.1-75.6 8-118 7.3-17.6-.3-36.5-1-42-1.7-33.5-3.6-61.2-10.8-83-21.6-10-4.9-24.1-14.1-23.1-15.1.2-.3 4.6.5 9.8 1.6 14.1 3 30.3 5 50.7 6.1 19.9 1.1 25.5 1.9 57.6 7.6 20.3 3.7 21.8 3.8 44 3.8 20.5 0 23.9-.3 31-2.2 26.3-7.2 43.6-23.3 50.5-47.2 1.8-5.9 2.3-11.1 2.7-24.9l.6-17.3 2 3.3c9.8 16.1 15.8 24.3 23.4 31.6 27.7 27 59.8 35 98.2 24.7 25.3-6.8 48.2-21.1 74.3-46.3 9.8-9.4 10.8-10.7 10.8-14 .1-3.7-9.1-89.3-9.6-90-.7-.8-5.9 3.4-15.7 12.7-23.1 21.9-36.7 30.9-51.9 34.2-19.3 4.3-32.6-11.8-34.5-42-1.1-17.3 4.3-31.7 15.8-42.4 6.9-6.4 13.6-10.1 23.6-12.8 7.1-2 10-2.1 31.6-2 19 .1 23.9-.1 24.3-1.2.4-1.1-2.1-25.3-7.5-74.1-1.1-9.7-2.4-11.1-11.6-12-3.5-.4-19.4-.5-35.2-.2-26.2.4-29.9.7-41.1 3.1-6.7 1.4-17 4.4-22.8 6.6-49.2 18.5-77.3 51.5-88.5 104-3.9 18.2-3.1 52.3 1.8 78.4.5 2.7-.5 1.9-8.9-6.9-5.2-5.5-10.7-10.6-12.1-11.4-3.9-2.1-4.1-3.9-.8-7.6 7.6-8.7 14-25.1 16.2-41.1 3.9-29.4-7.7-61.9-27.9-78-11.8-9.4-25.3-14.6-42.9-16.5-11.6-1.2-11.5-1.2-64.3 3.1-56.8 4.7-103.3 8-103.9 7.5-1.2-1.2 3.8-8 19-25.8 8.9-10.4 17.5-19.7 19.2-20.8 4.1-2.4 7.4-2.4 13.6.1 8.5 3.3 12.7-.4 14-12 .7-6 .3-5.8 8-4.3l3.4.6-.6-5.9c-.4-3.2-.9-8.3-1.3-11.2-.7-5.2-.6-5.4 3.2-9.3 2.1-2.1 4.6-3.9 5.6-3.9s6.7 2.4 12.7 5.4c22.3 11.2 48.4 21.2 66.8 25.5 44.3 10.4 86.3 5 111.8-14.2 8.5-6.4 21.1-18.4 20.3-19.2-.4-.4-3.4 1.6-6.8 4.4-7.9 6.6-23.9 14.4-36.5 17.8-9.4 2.5-11.3 2.7-31 2.7-18.7 0-22.5-.3-34.6-2.7-25.2-4.9-49.4-13-76.1-25.3-11-5-12.8-6.2-12.8-8.2 0-3.3 2-3.6 9.5-1.3 5.2 1.6 9.4 2.1 18.3 2.1 6.4 0 11.2-.4 10.7-.8-.6-.5-4.7-2.4-9.3-4.2-9.9-3.9-13.2-6.3-13.2-9.6 0-3 3.8-7.1 7.6-8 1.7-.4 8 .3 16.4 2 15.1 3 17.6 3.2 18.3 1.3.7-2-1.1-4.5-5.7-7.7-2.5-1.6-5.2-3.7-6-4.6-2.4-2.4-2-7.7.9-10.8 2.2-2.4 3.1-2.6 10-2.6 5.5 0 7.5-.3 7.5-1.3 0-.7-3.1-4.3-7-8-6.2-5.9-9.3-10.8-7.7-12.4.4-.3 7 .5 14.9 1.7 16 2.5 27.4 2.4 36.8-.5 4.7-1.5 5.2-1.9 3.7-3-.9-.6-5.3-1.5-9.7-1.8-11.8-.9-12.9-2-4.4-4.5 3.8-1.2 10-2.8 13.9-3.7 3.8-.9 9.8-3.2 13.3-5.2 3.6-1.9 7.6-3.9 9.1-4.4 4.2-1.4 12.4-.1 19.7 3zM249 142.4c-1.9 6.3-5.6 10.9-15.4 19.4-10.8 9.4-16.9 16.2-22.4 25.2-2.7 4.6-5.9 8.1-10.8 11.8-19.1 14.7-35.5 31.5-50.5 51.7-5 6.6-12.7 16.4-17.2 21.8-17.5 21-29.2 42.9-39.2 73.5l-3.7 11.3-5.6 2.8c-7.1 3.7-12.4 9-15.6 16-3 6.6-4.2 5.2-3.3-4 .7-7.8 4.3-13.9 10.2-17.3 6.1-3.6 8.6-7.8 13.5-22.6 2.2-6.9 7.7-19.9 12.2-28.9 6.7-13.6 9-17.4 13.7-22 3.1-3.1 7.1-6.4 8.9-7.3 4-2.1 5.5-5.9 4.7-11.8-1-7.8-2-6.8 52-56.6 26.3-24.2 44.9-43 59.5-60.1 7.7-9 9.6-10.7 9.8-9 .2 1.2-.1 3.9-.8 6.1zm297.9 119.5c14.3 1.2 13.9.7 16.2 21.8 1 9.2 2.1 20.9 2.5 26 .8 11 2.8 10-20.6 10.7-18.5.4-24.1 1.6-36 7.4-10.8 5.3-23 17.6-28.8 29.2-12.9 25.9-10.7 56.2 5.6 76.1 8.2 10.1 16.3 14.2 28.2 14.2 15.8.2 34.3-9.4 55.7-28.8 4-3.7 7.3-6.4 7.3-6.1 0 .2 1.4 12.5 3 27.3 1.7 14.7 2.8 27.7 2.6 28.9-.6 2.4-20.1 21.9-29.8 29.7-9.9 8.1-19.5 14.2-30.2 19.3-30.9 14.6-64 12.4-88.3-6-10.7-8.1-18.7-18.2-27.6-34.6-16.2-29.9-23.2-64.5-19.6-96.8 6.7-62.2 37.2-99.9 91.9-113.8 19.2-4.9 43.2-6.5 67.9-4.5zM313.5 293c29.7 9.4 44.5 32.5 44.5 68.9-.1 20.6-5.1 34.2-16.8 45.2-3.7 3.5-9.6 7.9-13.2 9.8l-6.4 3.4 5.1 1.8c23.7 8 39.9 24.6 46.5 47.4 1.9 6.9 2.3 10.2 2.2 23.5 0 22.8-3.8 35.1-14.1 46.1-13.3 14.3-31.1 19.1-62.2 17-32.2-2.3-61.7-9-100.4-23.1-25.3-9.2-30.2-12.3-33.6-21.4-2.5-6.8-3-10.3-9.5-73.6-3-28.9-7.4-70.2-9.7-91.9l-4.2-39.4 2-1.7c1.5-1.2 6-2 14.9-2.9 7.1-.7 37-3.7 66.4-6.6 61.4-6.2 75.7-6.6 88.5-2.5zm-175 122.8c6.4 63.5 11.5 115.6 11.2 115.8-.7.7-11.5-3.4-17.5-6.6-18-9.6-37.9-30.4-46.3-48.5-2.6-5.5-5.3-16.3-4.4-17.3.2-.2 3 .6 6.2 1.8 7.5 2.8 17.9 3.6 28.3 2.1 4.5-.7 8.8-1.5 9.6-1.8.9-.3-2.9-3.6-10.6-9-20.1-14.1-30.1-24.9-28.6-30.7 1-4 6.9-8.7 19.7-15.7l12.1-6.7-8.9-5c-10.6-6.1-12.5-8-12.5-12.4 0-4.3 10-37.5 15.6-52.2 5.3-13.7 13.7-31.5 14.2-30.1.2.5 5.6 52.9 11.9 116.3z"/><path d="M228.5 343.9c-4.5 2-4.8 3.3-3.6 14.9.7 5.9 1.5 15.4 2 21.1.6 6.8 1.3 10.6 2.2 11.2 2.2 1.3 13.7 2.2 21.9 1.6 16.6-1.1 25.9-9.1 26-22.3 0-12-5.8-21.4-15.6-24.8-5.6-2-29.5-3.2-32.9-1.7zm24.3 17c6.6 1.3 9.2 4.3 9.2 10.6 0 7.1-1.7 8.4-10.8 8.8-9.4.3-10.5-.8-11-10.5-.6-9.8 1.3-11.1 12.6-8.9zM234.1 445.4c-1 1.2-.8 5.8.9 23.7 1.2 12.3 2.6 23.1 3.1 24.1 1.1 1.9 2 2.2 12.6 3.8 14.6 2.1 23.9 1.1 30.4-3.3 11.7-7.9 11.1-28.1-1.3-39.2-5.9-5.3-13.4-7.9-25.3-8.9-4.4-.3-10.5-.9-13.6-1.2-4.2-.4-5.8-.2-6.8 1zm33.8 20.4c4.7 2.5 7.3 7.5 6.8 13.1-.3 2.7-1.2 5-2.3 5.8-2.5 1.8-14.7 1.7-18.3-.2-3.5-1.8-4-3-4.8-11.9-.8-9.6.2-10.6 8.8-9.4 3.5.4 7.9 1.6 9.8 2.6z"/></svg>