<?xml version="1.0" standalone="no"?>
<!DOCTYPE svg PUBLIC "-//W3C//DTD SVG 20010904//EN"
 "http://www.w3.org/TR/2001/REC-SVG-20010904/DTD/svg10.dtd">
<svg version="1.0" xmlns="http://www.w3.org/2000/svg"
 width="700.000000pt" height="700.000000pt" viewBox="0 0 700.000000 700.000000"
 preserveAspectRatio="xMidYMid meet">
<metadata>
Created by potrace 1.14, written by Peter Selinger 2001-2017
</metadata>
<g transform="translate(0.000000,700.000000) scale(0.100000,-0.100000)"
fill="#000000" stroke="none">
<path d="M653 4976 l-28 -24 -2 -1197 -2 -1197 -23 -19 c-154 -133 -279 -301
-349 -471 -35 -86 -36 -96 -5 -65 13 13 46 41 72 63 27 21 51 42 54 45 3 3 42
31 87 61 219 150 486 262 768 324 59 13 125 25 160 29 22 3 58 8 80 12 22 3
132 6 243 7 l204 1 21 30 c92 132 280 363 394 485 28 30 50 56 48 58 -2 2
-240 3 -529 3 -289 1 -526 4 -527 7 -5 39 -2 437 3 445 7 12 1174 17 1248 5
80 -14 110 -43 124 -120 l7 -38 35 33 c69 63 265 204 374 269 89 54 107 68 95
78 -11 9 -4 21 44 69 67 67 117 160 129 241 9 61 8 378 -2 425 -22 112 -27
127 -62 195 -76 145 -192 222 -389 255 -64 11 -299 14 -1162 15 l-1082 0 -28
-24z m1950 -544 c69 -31 88 -78 88 -219 -1 -129 -20 -180 -79 -210 -35 -17
-75 -18 -667 -18 l-629 0 0 217 c1 229 4 244 47 250 12 2 285 3 607 2 573 -1
586 -2 633 -22z"/>
<path d="M4509 4996 c-2 -2 -35 -6 -74 -9 -38 -4 -105 -15 -147 -26 -319 -82
-513 -269 -592 -571 -35 -135 -37 -149 -43 -420 l-5 -245 28 -21 c16 -12 82
-66 146 -121 l118 -100 152 38 c84 21 172 41 196 45 23 3 46 11 50 18 4 6 8
119 8 251 2 225 4 264 19 340 14 71 64 138 126 171 66 34 120 37 684 39 l560
1 325 252 c179 139 332 258 340 265 8 7 39 30 68 52 28 21 52 41 52 42 0 4
-2006 3 -2011 -1z"/>
<path d="M3339 3761 c-104 -34 -180 -70 -284 -135 -218 -137 -431 -323 -640
-561 -44 -49 -85 -96 -92 -103 -7 -8 -43 -53 -80 -100 -37 -48 -70 -89 -74
-92 -4 -3 -17 -21 -30 -40 -13 -19 -37 -52 -53 -73 -16 -21 -26 -40 -23 -43 3
-3 59 37 124 88 344 274 700 481 1068 623 178 68 362 122 502 146 l72 12 -27
24 c-171 150 -313 262 -343 271 -30 8 -51 5 -120 -17z"/>
<path d="M4998 3594 c-2 -1 -44 -5 -93 -8 -50 -4 -108 -9 -130 -12 -39 -5 -76
-9 -160 -20 -22 -2 -62 -9 -90 -14 -27 -5 -66 -12 -85 -15 -19 -4 -87 -17
-150 -31 -63 -14 -128 -28 -144 -30 -140 -26 -725 -208 -651 -203 32 2 34 0
26 -28 -4 -14 -13 -28 -21 -29 -185 -38 -609 -197 -820 -307 -148 -77 -369
-217 -416 -262 -7 -7 89 -10 310 -10 330 0 570 -9 821 -30 39 -3 102 -8 140
-10 69 -5 135 -10 245 -20 86 -8 159 -14 240 -20 41 -3 93 -7 115 -10 22 -2
85 -7 140 -11 55 -3 116 -8 135 -9 19 -2 101 -6 181 -10 80 -4 152 -7 160 -7
72 -4 70 -6 225 184 82 101 165 203 185 228 20 25 120 146 221 270 l185 225
-31 5 c-17 3 -120 5 -228 5 -182 0 -198 1 -199 18 -1 22 -1 83 0 100 1 10 17
13 59 11 31 -1 76 -2 99 -3 41 -1 42 -2 33 -26 -5 -14 -7 -25 -3 -25 12 0 154
92 150 97 -5 5 -445 12 -449 7z m63 -69 c2 -43 -3 -100 -9 -106 -4 -4 -74 -10
-157 -13 -82 -3 -182 -9 -221 -12 l-71 -6 1 64 1 63 55 6 c30 4 111 10 180 14
69 4 126 8 127 9 1 1 23 2 48 2 38 -1 45 -4 46 -21z m-502 -76 c0 -32 -3 -60
-8 -63 -4 -3 -37 -8 -72 -11 -35 -3 -80 -7 -99 -10 -19 -3 -53 -7 -75 -10 -22
-2 -61 -7 -87 -11 l-48 -6 0 51 c0 50 0 50 38 60 20 5 55 12 77 16 22 3 54 8
70 11 54 10 180 30 191 30 8 1 12 -21 13 -57z m-434 -64 c-1 -51 -3 -54 -42
-59 -16 -2 -67 -11 -113 -20 -156 -28 -140 -30 -140 14 0 44 -12 38 169 84
129 33 127 33 126 -19z m-339 -80 c1 -19 0 -35 -2 -35 -10 0 -182 -40 -196
-45 -11 -4 -17 1 -20 19 -3 13 -2 29 2 35 6 11 202 71 209 65 2 -2 5 -20 7
-39z"/>
<path d="M6828 3333 c-116 -128 -362 -214 -721 -253 -168 -18 -230 -21 -483
-21 l-252 0 -48 -62 c-27 -34 -51 -64 -54 -67 -3 -3 -46 -54 -95 -115 -49 -60
-117 -144 -152 -186 -35 -42 -63 -79 -63 -81 0 -19 566 -12 622 6 7 3 36 7 63
10 85 8 245 46 365 86 309 104 551 271 722 500 51 68 136 210 126 210 -3 0
-16 -12 -30 -27z"/>
<path d="M3435 3250 c-13 -6 -15 -9 -5 -9 8 0 22 4 30 9 18 12 2 12 -25 0z"/>
<path d="M6900 2977 c0 -33 -95 -161 -180 -244 -213 -208 -602 -353 -1070
-398 -36 -4 -79 -8 -96 -10 -149 -20 -711 -26 -989 -11 -82 5 -172 10 -200 11
-69 4 -222 15 -270 20 -22 3 -76 7 -120 10 -44 3 -96 7 -115 10 -19 2 -75 7
-125 10 -49 4 -108 8 -130 10 -66 6 -196 16 -260 20 -33 2 -91 6 -130 9 -294
23 -772 33 -985 21 -264 -15 -494 -39 -626 -66 -28 -5 -64 -12 -80 -15 -172
-30 -595 -152 -639 -184 -5 -4 -23 -10 -40 -14 -58 -14 -339 -157 -434 -220
-102 -69 -219 -170 -271 -237 -39 -48 -36 -59 5 -21 68 62 226 151 375 210
215 85 590 176 895 216 103 14 124 16 175 21 190 16 308 20 575 20 261 0 476
-7 635 -20 25 -2 90 -6 145 -10 55 -3 116 -8 135 -10 19 -2 73 -7 120 -10 47
-4 103 -8 125 -11 64 -6 143 -12 245 -19 52 -4 102 -8 110 -10 8 -2 65 -6 125
-10 61 -4 126 -8 145 -10 148 -14 346 -20 655 -20 410 0 542 7 820 46 44 6 90
13 102 14 11 2 29 5 40 9 10 3 38 8 63 11 25 3 53 8 62 11 9 3 25 6 35 8 63
13 161 39 243 65 368 115 633 280 791 493 54 74 123 203 133 250 3 13 8 33 12
46 3 12 4 22 0 22 -3 0 -6 -6 -6 -13z"/>
</g>
</svg>
