<svg xmlns="http://www.w3.org/2000/svg" viewBox="0 0 401.238 401.238">
  <path d="M201.162 38.678c8.228 3.126 15.237 8.225 22.131 13.546 12.951 9.994 28.075 15.648 43.357 20.587 33.967 10.978 62.02 30.607 85.734 56.887 37.119 41.134 39.822 91.611 11.391 137.852-21.734 35.349-51.215 62.866-89.754 79.502-20.609 8.896-42.636 11.694-64.89 12.663-39.407 1.715-77.937-2.963-115.007-16.907-26.29-9.889-49.144-24.428-63.57-49.658-3.228-5.646-5.544-11.602-7.611-17.774-3.346-9.994-3.439-28.413-.018-40.173 10.342-42.132 26.908-81.455 56.997-113.304 32.273-34.161 71.313-59.803 111.806-83.221h9.434zm164.767 195.125c-4.697 3.823-9.801 3.426-14.96 1.262-1.542-.647-3.75-1.442-3.403-3.501.358-2.125 2.577-1.07 3.965-1.178 9.432-.739 18.337-10.183 18.553-19.498.574-24.697-6.945-46.761-21.659-66.414-22.574-30.15-52.861-50.49-86.006-67.136-1.337-.671-2.664-1.343-4.209-.425 9.258 9.222 10.24 10.704 11.096 17.155-2.289-2.103-4.283-3.905-6.244-5.742-12.409-11.621-26.253-21.149-41.406-28.867-7.109-3.621-13.688-6.822-21.534-1.068-3.282 2.407-8.116 2.699-12.244 3.952l-7.047 2.14c5.171 2.309 9.524-.117 13.397 2.772-11.422 5.258-22.326 1.817-33.305.125.137 6.594 7.48 7.525 9.237 12.544-.659.332-1.012.677-1.308.633-3.948-.585-8.467-1.538-10.403 2.939-2.071 4.787 3.325 5.764 5.623 8.292.869.956 2.666 1.654 1.793 3.245-.768 1.397-2.471.819-3.739.592-4.055-.726-8.111-1.486-12.117-2.439-3.85-.916-7.252.577-8.3 3.753-.989 2.998 2.715 4.195 5.116 5.304 2.439 1.126 5.013 1.962 9.04 3.505-7.653.419-13.594 1.098-19.243-1.113-1.864-.73-3.653-1.458-4.352.7-.636 1.963 1.79 2.223 3.045 2.835 13.086 6.38 26.579 11.759 40.781 15.048 22.363 5.179 44.367 6.423 64.562-7.486l.855 1.026c-10.934 11.783-25.085 16.465-40.519 17.407-26.18 1.598-49.7-7.55-72.546-19.03-1.858-.933-3.612-3.205-6.16-.539-2.033 2.127-4.234 3.53-2.895 7.215 1.057 2.907.965 6.232 1.342 9.062-2.652.673-4.213-1.907-6.858-.836 0 1.7.243 3.477-.048 5.162-.721 4.167-3.477 7.039-7.4 4.902-6.12-3.333-9.231-.245-12.619 3.919-3.839 4.718-7.943 9.22-11.83 13.9-2.15 2.589-4.792 4.909-5.957 8.824 13.866-1.021 27.161-1.95 40.446-2.994 13.501-1.06 26.993-2.241 40.49-3.355 15.488-1.277 30.403.071 42.489 11.217 16.856 15.543 19.178 47.455 5.15 66.022-.951 1.259-3.794 2.494-.654 4.492 4.78 3.042 8.236 7.524 12.851 12.977-.559-3.363-.858-5.069-1.124-6.78-2.027-13.042-2.978-26.119-.492-39.197 6.058-31.866 24.655-52.679 55.579-62.366 17.392-5.448 35.262-4.601 53.153-3.794 4.095.185 5.305 1.505 5.67 5.344a1458.727 1458.727 0 004.545 41.56c.429 3.46-.642 3.739-3.661 3.603-7.83-.354-15.671-1.172-23.524-.21-17.824 2.182-28.772 15.04-27.658 32.666.285 4.512 1.119 8.958 2.71 13.22 3.798 10.171 10.798 13.429 20.985 9.678 8.848-3.258 15.847-9.244 22.703-15.472 3.93-3.57 7.33-7.792 12.221-10.842 1.92 17.122 3.78 33.697 5.636 50.271.195 1.745.351 3.305-1.147 4.847-12.846 13.233-26.768 25.081-44.635 30.779-23.864 7.61-44.902 2.712-62.23-15.935-4.484-4.826-7.734-10.546-11.89-17.555 0 5.902.251 10.162-.043 14.383-1.408 20.22-13.084 33.382-32.944 37.492-6.209 1.285-12.461 1.304-18.752 1.196-17.945-.307-35.137-6.404-53.061-6.835-12.571-.303-24.979-1.901-37.241-4.966 5.576 4.994 11.836 8.556 18.585 11.318 20.705 8.472 42.523 10.734 64.577 11.267 28.147.681 56.078-1.977 83.862-6.346 3.631-.571 3.632-.567 7.979.672-17.799 5.588-36.254 7.55-52.95 15.394 33.292-.04 62.785-12.192 91.476-27.698 29.763-16.086 52.28-38.567 66.437-69.583-6.285-1.782-6.285-1.782-9.264-4.53 1.665-2.316 4.251-1.426 6.444-1.854 5.836-1.138 8.495-5.283 7.177-11.14l.519.831.584-.572-1.092-.146zm-181.718 7.152c10.628-4.51 17.749-11.84 20.128-23.025 2.131-10.018 1.221-19.936-2.197-29.55-3.587-10.09-10.658-16.705-20.848-20.023a47.442 47.442 0 00-19.195-2.137c-25.586 2.38-51.145 5.044-76.73 7.425-3.766.351-4.239 1.764-3.861 5.225 3.555 32.577 6.953 65.172 10.296 97.772 2.206 21.508 2.065 21.701 22.555 29.128 22.058 7.995 44.645 13.925 68.345 13.277 17.764-.486 29.53-10.128 32.048-26.307 3.606-23.174-3.854-44.31-30.541-51.785zm146.535-4.936c-2.101 1.932-3.342 3.098-4.61 4.233-6.913 6.193-14.214 11.801-23.139 14.84-9.408 3.203-17.627 1.226-23.576-5.577-17.71-20.251-8.251-55.189 17.188-63.69 7.806-2.609 15.804-2.874 23.866-2.319 3.297.227 4.663-.52 4.183-4.161a431.7 431.7 0 01-2.459-23.42c-.284-3.708-1.529-5.275-5.502-5.596-11.597-.939-23.188-1.337-34.656.648-27.815 4.816-47.91 19.671-56.275 47.185-8.391 27.601-4.973 54.582 9.577 79.481 13.537 23.165 37.73 30.591 62.025 20.164 14.023-6.019 24.992-16.105 35.338-26.977 1.333-1.4 1.547-2.994 1.328-4.88-1.112-9.551-2.112-19.115-3.288-29.931zm-263.057-6.861c-3.531 1.816-6.907 3.4-10.135 5.241-10.243 5.844-10.51 8.809-1.992 16.834 5.087 4.792 11.139 8.303 17.662 13.113-5.253 1.129-9.397 1.612-13.662 1.678-4.499.07-8.65-1.207-12.788-3.138-.718 14.698 21.942 38.755 39.256 41.908L72.549 170.95c-6.362 12.378-10.546 23.698-13.795 35.329-4.405 15.771-7.018 13.688 8.369 22.095.155.084.231.309.566.784zm75.682-152.476c-4.004 4.609-7.385 8.598-10.868 12.496-17.301 19.356-37.52 35.685-55.981 53.841-2.098 2.063-3.426 3.891-2.772 7.089.619 3.022-.211 6.196-3.357 7.46-4.412 1.772-6.603 5.413-8.773 9.122-5.27 9.004-9.208 18.631-12.153 28.594-1.164 3.939-3.064 6.487-6.665 8.273-4.37 2.167-6.762 9.94-4.913 15.022 2.096-6.012 5.367-10.921 11.794-12.96 1.187-.377 1.754-1.141 2.162-2.444 5.667-18.1 12.85-35.409 26.323-49.361.947-.98 1.716-2.145 2.492-3.275 9.737-14.166 20.937-26.941 34.921-37.126 1.716-1.25 3.553-2.763 4.482-4.588 3.853-7.569 9.941-13.004 16.298-18.312 3.945-3.295 7.107-7.213 7.01-13.831z" fill="#070606"/>
  <path d="M240.658 115.732c-20.194 13.909-42.198 12.665-64.562 7.486-14.202-3.289-27.695-8.668-40.781-15.048-1.256-.612-3.681-.872-3.045-2.835.699-2.158 2.488-1.43 4.352-.7 5.649 2.212 11.59 1.533 19.243 1.113-4.028-1.543-6.601-2.378-9.04-3.505-2.401-1.109-6.105-2.306-5.116-5.304 1.048-3.176 4.449-4.669 8.3-3.753 4.006.953 8.062 1.713 12.117 2.439 1.268.227 2.972.805 3.739-.592.874-1.59-.924-2.289-1.793-3.245-2.298-2.528-7.694-3.505-5.623-8.292 1.937-4.477 6.455-3.524 10.403-2.939.296.044.649-.301 1.308-.633-1.757-5.019-9.1-5.95-9.237-12.544 10.979 1.692 21.883 5.133 33.305-.125-3.873-2.89-8.226-.463-13.397-2.772l7.047-2.14c4.128-1.253 8.962-1.545 12.244-3.952 7.847-5.754 14.426-2.553 21.534 1.068 15.152 7.719 28.997 17.246 41.406 28.867 1.961 1.837 3.955 3.639 6.244 5.742-.856-6.451-1.838-7.933-11.096-17.155 1.545-.918 2.872-.246 4.209.425 33.145 16.647 63.432 36.987 86.006 67.136 14.714 19.652 22.233 41.716 21.659 66.414-.216 9.315-9.121 18.759-18.553 19.498-1.388.109-3.608-.946-3.965 1.178-.347 2.059 1.861 2.855 3.403 3.501 5.159 2.164 10.263 2.561 14.96-1.262l-.018-.169c1.327 5.914-1.331 10.059-7.168 11.197-2.193.428-4.779-.462-6.444 1.854 2.979 2.748 2.979 2.748 9.264 4.53-14.157 31.016-36.674 53.497-66.437 69.583-28.691 15.507-58.184 27.659-91.476 27.698 16.696-7.844 35.151-9.806 52.95-15.394-4.347-1.239-4.348-1.243-7.979-.672-27.784 4.368-55.714 7.026-83.862 6.346-22.054-.533-43.873-2.795-64.577-11.267-6.749-2.762-13.009-6.323-18.585-11.318 12.262 3.065 24.67 4.663 37.241 4.966 17.924.431 35.115 6.528 53.061 6.835 6.291.108 12.543.089 18.752-1.196 19.86-4.11 31.536-17.272 32.944-37.492.294-4.221.043-8.48.043-14.383 4.155 7.009 7.405 12.73 11.89 17.555 17.328 18.647 38.365 23.546 62.23 15.935 17.867-5.698 31.789-17.546 44.635-30.779 1.498-1.543 1.342-3.103 1.147-4.847-1.856-16.575-3.716-33.149-5.636-50.271-4.891 3.05-8.291 7.272-12.221 10.842-6.857 6.228-13.855 12.214-22.703 15.472-10.187 3.751-17.187.494-20.985-9.678-1.591-4.262-2.425-8.708-2.71-13.22-1.115-17.626 9.834-30.484 27.658-32.666 7.853-.962 15.694-.144 23.524.21 3.019.137 4.09-.143 3.661-3.603a1462.367 1462.367 0 01-4.545-41.56c-.365-3.84-1.575-5.16-5.67-5.344-17.891-.807-35.761-1.654-53.153 3.794-30.924 9.686-49.521 30.5-55.579 62.366-2.486 13.078-1.535 26.155.492 39.197.266 1.711.565 3.416 1.124 6.78-4.615-5.453-8.072-9.935-12.851-12.977-3.14-1.998-.296-3.234.654-4.492 14.028-18.567 11.706-50.479-5.15-66.022-12.087-11.145-27.001-12.494-42.489-11.217-13.497 1.113-26.989 2.294-40.49 3.355-13.286 1.043-26.58 1.972-40.446 2.994 1.165-3.915 3.806-6.235 5.957-8.824 3.887-4.68 7.991-9.182 11.83-13.9 3.388-4.164 6.499-7.252 12.619-3.919 3.922 2.136 6.679-.735 7.4-4.902.291-1.685.048-3.463.048-5.162 2.645-1.071 4.206 1.509 6.858.836-.377-2.83-.285-6.155-1.342-9.062-1.34-3.685.862-5.088 2.895-7.215 2.548-2.666 4.303-.395 6.16.539 22.846 11.48 46.366 20.629 72.546 19.03 15.434-.942 29.585-5.624 40.519-17.407l1.166-1.195c.723-.073 1.121-.462 1.165-1.196.752-.072 1.168-.447 1.118-1.241.74-.25 1.278-.6.527-1.373-.036-.037-.691.527-1.057.812l-1.232 1.146-1.348 1.055c-.401.321-.798.643-1.196.965z" fill="#f0ece4"/>
  <path d="M184.211 240.955c26.687 7.475 34.147 28.611 30.54 51.782-2.519 16.18-14.284 25.822-32.048 26.307-23.7.648-46.286-5.282-68.345-13.277-20.49-7.426-20.349-7.62-22.555-29.128-3.343-32.6-6.742-65.194-10.296-97.772-.378-3.461.096-4.874 3.861-5.225 25.586-2.381 51.145-5.045 76.73-7.425a47.459 47.459 0 0119.195 2.137c10.19 3.318 17.261 9.933 20.848 20.023 3.418 9.615 4.328 19.532 2.197 29.55-2.378 11.188-9.499 18.518-20.127 23.028zm-33.871 44.501c9.679.201 14.866-3.982 15.381-11.485.523-7.623-3.99-14.328-11.281-16.824-5.865-2.007-12.063-1.376-18.062-2.331-2.856-.455-2.605 1.647-2.441 3.41.692 7.426 1.527 14.84 2.121 22.273.175 2.186 1.048 3.165 3.134 3.427 4.086.512 8.161 1.115 11.148 1.53zm-12.413-88.436c-.182 0-1.752.071-3.313-.014-4.459-.242-6.788.842-5.741 6.229 1.076 5.534.997 11.286 1.574 16.928.181 1.77-.289 4.128 2.684 4.379 5.859.495 11.728 1.097 17.434-.89 5.608-1.953 8.611-6.878 8.002-12.839-1.026-10.037-7.074-14.388-20.64-13.793zM330.746 236.019c1.176 10.816 2.176 20.38 3.287 29.931.22 1.886.005 3.48-1.328 4.88-10.346 10.872-21.315 20.958-35.338 26.977-24.294 10.428-48.488 3.001-62.025-20.164-14.55-24.899-17.968-51.88-9.577-79.481 8.365-27.514 28.46-42.369 56.275-47.185 11.467-1.986 23.059-1.588 34.656-.648 3.973.322 5.218 1.889 5.502 5.596a431.7 431.7 0 002.459 23.42c.48 3.64-.886 4.388-4.183 4.161-8.063-.555-16.06-.29-23.866 2.319-25.439 8.501-34.897 43.439-17.188 63.69 5.949 6.803 14.168 8.78 23.576 5.577 8.925-3.039 16.226-8.647 23.139-14.84 1.269-1.136 2.51-2.302 4.611-4.233z" fill="#f29131"/>
  <path d="M67.689 229.158c-.335-.474-.412-.699-.565-.783-15.387-8.407-12.774-6.324-8.369-22.095 3.249-11.631 7.432-22.952 13.795-35.329l13.481 133.844c-17.314-3.152-39.973-27.21-39.256-41.908 4.138 1.931 8.288 3.208 12.788 3.138 4.265-.066 8.409-.549 13.662-1.678-6.523-4.81-12.575-8.321-17.662-13.113-8.518-8.024-8.251-10.99 1.992-16.834 3.228-1.843 6.603-3.426 10.134-5.242z" fill="#f0ece4"/>
  <path d="M143.371 76.682c.097 6.619-3.064 10.537-7.009 13.831-6.357 5.308-12.445 10.743-16.298 18.312-.929 1.825-2.766 3.339-4.482 4.588-13.983 10.185-25.184 22.96-34.921 37.126-.777 1.13-1.546 2.295-2.492 3.275-13.473 13.952-20.656 31.261-26.323 49.361-.408 1.303-.975 2.068-2.162 2.444-6.427 2.039-9.698 6.948-11.794 12.96-1.849-5.082.543-12.855 4.913-15.022 3.601-1.786 5.501-4.334 6.665-8.273 2.945-9.963 6.883-19.59 12.153-28.594 2.171-3.709 4.361-7.351 8.773-9.122 3.146-1.263 3.975-4.438 3.357-7.46-.655-3.198.674-5.026 2.772-7.089 18.461-18.156 38.68-34.485 55.981-53.841 3.482-3.898 6.863-7.887 10.867-12.496zM365.929 233.803l1.095.147-.584.572c-.173-.277-.346-.554-.524-.86-.005-.027.013.141.013.141z" fill="#fefdfd"/>
  <path d="M244.43 112.565c.367-.284 1.021-.849 1.057-.812.752.773.213 1.123-.527 1.373a14.808 14.808 0 01-.53-.561z" fill="#070606"/>
  <path d="M244.961 113.126c.05.794-.366 1.169-1.118 1.241a39.84 39.84 0 01-.644-.656l1.232-1.146c.171.192.348.379.53.561z" fill="#070606"/>
  <path d="M243.843 114.367c-.044.734-.441 1.124-1.165 1.196-.272-.27-.548-.536-.828-.797l1.348-1.055c.213.221.428.44.645.656z" fill="#070606"/>
  <path d="M242.679 115.563l-1.166 1.195-.855-1.026 1.194-.966c.279.261.555.527.827.797zM150.34 285.456c-2.987-.414-7.061-1.018-11.147-1.531-2.086-.262-2.96-1.241-3.134-3.427-.594-7.433-1.429-14.847-2.121-22.273-.164-1.764-.416-3.865 2.441-3.41 5.999.956 12.198.324 18.062 2.331 7.291 2.496 11.804 9.2 11.281 16.824-.517 7.504-5.704 11.687-15.382 11.486zm.322-6.745c5.146.191 6.611-.717 6.8-4.214.3-5.568-3.341-8.808-10.538-9.095-1.568-.063-3.917-1.338-3.956 2.364-.099 9.197.746 10.688 7.694 10.945zM137.927 197.02c13.566-.595 19.614 3.756 20.64 13.793.61 5.961-2.394 10.885-8.002 12.839-5.706 1.988-11.575 1.386-17.434.89-2.973-.251-2.503-2.609-2.684-4.379-.577-5.641-.499-11.394-1.574-16.928-1.047-5.387 1.282-6.471 5.741-6.229 1.561.085 3.131.014 3.313.014zm5.426 21.096c2.374-.51 6.76.964 7.029-4.512.239-4.881-2.321-6.925-8.538-6.98-2.403-.021-5.199-.319-4.089 3.416.902 3.038-2.281 8.713 5.598 8.076z" fill="#070606"/>
  <path d="M150.662 278.711c-6.948-.258-7.793-1.748-7.695-10.945.04-3.701 2.388-2.426 3.956-2.364 7.197.288 10.838 3.528 10.538 9.095-.188 3.497-1.653 4.405-6.799 4.214zM143.353 218.116c-7.879.637-4.696-5.038-5.599-8.076-1.11-3.735 1.686-3.437 4.089-3.416 6.217.055 8.778 2.099 8.538 6.98-.268 5.475-4.655 4.001-7.028 4.512z" fill="#f0ece4"/>
</svg>
